<svg xmlns="http://www.w3.org/2000/svg" xmlns:xlink="http://www.w3.org/1999/xlink" width="50" height="50" viewBox="0 0 50 50">
  <defs>
    <clipPath id="clip-path">
      <rect width="50" height="50" fill="none"/>
    </clipPath>
  </defs>
  <g id="To-do_button" data-name="To-do  button" clip-path="url(#clip-path)">
    <path id="To-do_button-2" data-name="To-do  button" d="M826.007,691.871V652.408a5.345,5.345,0,0,0-5.305-5.315H781.413a5.367,5.367,0,0,0-5.406,5.315v39.363a5.346,5.346,0,0,0,5.305,5.315H820.7A5.135,5.135,0,0,0,826.007,691.871Zm-31.281-30.487a1.809,1.809,0,0,1-1.752-1.755v-1.755a1.809,1.809,0,0,1,1.752-1.755h9.76a1.809,1.809,0,0,1,1.752,1.755v1.755a1.809,1.809,0,0,1-1.752,1.755Zm0,12.937a1.809,1.809,0,0,1-1.752-1.755v-1.755a1.809,1.809,0,0,1,1.752-1.755h22.523A1.809,1.809,0,0,1,819,670.811v1.755a1.809,1.809,0,0,1-1.752,1.755Zm0,13.89a1.809,1.809,0,0,1-1.752-1.755V684.7a1.809,1.809,0,0,1,1.752-1.755h17.017a1.809,1.809,0,0,1,1.752,1.755v1.755a1.809,1.809,0,0,1-1.752,1.755Zm-8.008-26.827a1.809,1.809,0,0,1-1.752-1.755v-1.755a1.809,1.809,0,0,1,1.752-1.755h1.752a1.81,1.81,0,0,1,1.752,1.755v1.755a1.809,1.809,0,0,1-1.752,1.755Zm0,13.037a1.809,1.809,0,0,1-1.752-1.755v-1.755a1.809,1.809,0,0,1,1.752-1.755h1.752a1.809,1.809,0,0,1,1.752,1.755v1.755a1.809,1.809,0,0,1-1.752,1.755Zm0,13.539a1.809,1.809,0,0,1-1.752-1.755V684.45a1.809,1.809,0,0,1,1.752-1.755h1.752a1.809,1.809,0,0,1,1.752,1.755v1.755a1.809,1.809,0,0,1-1.752,1.755Z" transform="translate(-776.007 -647.093)" fill="#efefef"/>
  </g>
</svg>
