<svg xmlns="http://www.w3.org/2000/svg" xmlns:xlink="http://www.w3.org/1999/xlink" width="50" height="50" viewBox="0 0 50 50">
  <defs>
    <clipPath id="clip-path">
      <rect width="50" height="50" fill="none"/>
    </clipPath>
  </defs>
  <g id="Analysis_button" data-name="Analysis button" transform="translate(0)" clip-path="url(#clip-path)">
    <path id="Analysis_button-2" data-name="Analysis button" d="M54.878,10H15.415A5.345,5.345,0,0,0,10.1,15.305V54.595A5.367,5.367,0,0,0,15.415,60H54.778a5.345,5.345,0,0,0,5.315-5.305V15.305A5.135,5.135,0,0,0,54.878,10ZM24.391,49.289a1.809,1.809,0,0,1-1.755,1.752H20.881a1.809,1.809,0,0,1-1.755-1.752V39.53a1.809,1.809,0,0,1,1.755-1.752h1.755a1.809,1.809,0,0,1,1.755,1.752Zm8.976,0a1.809,1.809,0,0,1-1.755,1.752H29.857A1.809,1.809,0,0,1,28.1,49.289V26.066a1.809,1.809,0,0,1,1.755-1.752h1.755a1.809,1.809,0,0,1,1.755,1.752Zm8.976,0a1.809,1.809,0,0,1-1.755,1.752H38.832a1.809,1.809,0,0,1-1.755-1.752V20.761a1.809,1.809,0,0,1,1.755-1.752h1.755a1.809,1.809,0,0,1,1.755,1.752Zm8.875,0a1.809,1.809,0,0,1-1.755,1.752H47.708a1.809,1.809,0,0,1-1.755-1.752V32.272a1.809,1.809,0,0,1,1.755-1.752h1.755a1.809,1.809,0,0,1,1.755,1.752Z" transform="translate(-10.1 -10)" fill="#efefef"/>
  </g>
</svg>
