<svg xmlns="http://www.w3.org/2000/svg" width="1117.968" height="853.883" viewBox="0 0 1117.968 853.883">
  <g id="flower_main" transform="translate(2.732)">
    <path id="straw" d="M0,0V412.342" transform="translate(556.129 348.905)" fill="none" stroke="#519160" stroke-linecap="round" stroke-width="8"/>
    <path id="leaf4" d="M0,121.959l91.47-15.245L15.245,213.43,91.47,198.185,30.49,304.9l60.98-15.245L45.735,396.371,91.47,381.124,76.225,487.84,91.47,472.595,106.715,579.31,121.96,472.595,137.2,487.84,121.96,381.125l45.74,15.245L121.96,289.655l60.98,15.245L121.96,198.185l76.225,15.245L121.96,106.714l91.47,15.245L106.715,0Z" transform="matrix(0.5, 0.866, -0.866, 0.5, 1005.788, 376.657)" fill="#519160" stroke="#519160" stroke-linejoin="round" stroke-width="4"/>
    <path id="leaf3" d="M0,86.43l64.822-10.8L10.8,151.253l54.018-10.8L21.607,216.075l43.215-10.8L32.411,280.9l32.411-10.8-10.8,75.626,10.8-10.8,10.8,75.618,10.8-75.626,10.8,10.8-10.8-75.626,32.411,10.8L86.429,205.271l43.215,10.8L86.429,140.449l54.018,10.8L86.429,75.626l64.822,10.8L75.626,0Z" transform="matrix(0.866, 0.5, -0.5, 0.866, 697.963, 366.823)" fill="#519160" stroke="#519160" stroke-linejoin="round" stroke-width="4"/>
    <path id="leaf2" d="M0,86.429l64.822-10.8L10.8,151.251l54.018-10.8-43.21,75.622,43.215-10.8L32.411,280.9l32.411-10.8-10.8,75.626,10.8-10.8,10.8,75.626,10.8-75.626,10.8,10.8L86.422,270.1l32.411,10.8-32.4-75.63,43.215,10.8L86.429,140.448l54.018,10.8L86.429,75.626l64.822,10.8L75.626,0Z" transform="matrix(0.866, -0.5, 0.5, 0.866, 283.55, 442.45)" fill="#519160" stroke="#519160" stroke-linejoin="round" stroke-width="4"/>
    <path id="leaf1" d="M0,121.96l91.47-15.245L15.245,213.429,91.47,198.185,30.49,304.9l60.98-15.245L45.735,396.369,91.47,381.124,76.225,487.839,91.47,472.594l15.245,106.715L121.96,472.594l15.245,15.245L121.96,381.124l45.74,15.245L121.96,289.654,182.94,304.9,121.96,198.185l76.225,15.245L121.96,106.715l91.47,15.245L106.715,0Z" transform="matrix(0.5, -0.866, 0.866, 0.5, 0, 561.492)" fill="#519160" stroke="#519160" stroke-linejoin="round" stroke-width="4"/>
    <circle id="flower_spot1" cx="15.859" cy="15.859" r="15.859" transform="translate(714.722 31.718)" fill="#fff"/>
    <circle id="flower_spot2" cx="15.859" cy="15.859" r="15.859" transform="translate(730.678 300.786)" fill="#fff"/>
    <circle id="flower_spot3" cx="7.93" cy="7.93" r="7.93" transform="translate(486.452 0)" fill="#fff"/>
    <circle id="flower_spot4" cx="7.93" cy="7.93" r="7.93" transform="translate(387.974 277.611)" fill="#fff"/>
    <circle id="flower_spot5" cx="16" cy="16" r="16" transform="translate(288.632 143)" fill="#fff"/>
    <circle id="flower_body" cx="158.593" cy="158.593" r="158.593" transform="translate(397.536 31.719)" fill="#fff"/>
    <g id="flower_mid" transform="translate(478.83 111.516)" fill="#fff" stroke="#ffc440" stroke-width="8">
      <circle cx="79.296" cy="79.296" r="79.296" stroke="none"/>
      <circle cx="79.296" cy="79.296" r="75.296" fill="none"/>
    </g>
  </g>
</svg>
