<svg xmlns="http://www.w3.org/2000/svg" xmlns:xlink="http://www.w3.org/1999/xlink" width="120" height="120" viewBox="0 0 120 120">
  <defs>
    <clipPath id="clip-path">
      <rect id="Rectangle_119" data-name="Rectangle 119" width="120" height="120" transform="translate(1536 288)" fill="none" stroke="red" stroke-width="1"/>
    </clipPath>
  </defs>
  <g id="moving0" transform="translate(-1536 -288)" clip-path="url(#clip-path)">
    <g id="Group_37" data-name="Group 37" transform="translate(1005.598 -23.03)">
      <path id="Path_67" data-name="Path 67" d="M39.783,1.982c8.349,0,16.885-.384,23.522,3.808,4.05,2.556.557,7.69,3.332,12.376,3.836,6.472,13.09,6.3,13.09,14.518,0,9.623-2.214,27.061-8.092,35.7-3.521,5.176-12.9,4.138-18.564,5.712-5.326,1.482-14.647,6.188-20.944,6.188-8.591,0-15.656-6.936-20.944-11.9C6.026,63.547-6.2,62.99-7.857,55.771c-.718-3.112,5.236-12.007,5.236-16.422,0-10.173,4.46-19.868,10.948-27.132C15.405,4.288,27.984,1.982,39.783,1.982Z" transform="translate(562.837 319.029)" fill="#ffc440"/>
      <circle id="Ellipse_40" data-name="Ellipse 40" cx="7.957" cy="7.957" r="7.957" transform="translate(538.402 407.116)" fill="#fff"/>
      <line id="Line_78" data-name="Line 78" y2="63.652" transform="translate(596.993 364.438) rotate(45)" fill="none" stroke="#fff" stroke-width="2"/>
      <line id="Line_79" data-name="Line 79" x2="47.739" transform="translate(580.115 347.56) rotate(45)" fill="none" stroke="#fff" stroke-width="2"/>
      <line id="Line_80" data-name="Line 80" x1="17.902" y1="17.902" transform="translate(596.993 339.121) rotate(45)" fill="none" stroke="#fff" stroke-width="2"/>
      <line id="Line_81" data-name="Line 81" x1="17.902" y2="17.902" transform="translate(609.652 351.779) rotate(45)" fill="none" stroke="#fff" stroke-width="2"/>
      <line id="Line_82" data-name="Line 82" y2="23.869" transform="translate(613.872 347.56) rotate(45)" fill="none" stroke="#fff" stroke-width="2"/>
    </g>
  </g>
</svg>
