<svg xmlns="http://www.w3.org/2000/svg" xmlns:xlink="http://www.w3.org/1999/xlink" width="120" height="120" viewBox="0 0 120 120">
  <defs>
    <clipPath id="clip-path">
      <rect id="Rectangle_116" data-name="Rectangle 116" width="120" height="120" transform="translate(1824 288)" fill="none" stroke="red" stroke-width="1"/>
    </clipPath>
  </defs>
  <g id="moving5" transform="translate(-1824 -288)" clip-path="url(#clip-path)">
    <g id="Group_32" data-name="Group 32" transform="translate(0 -0.063)">
      <g id="Group_31" data-name="Group 31" transform="translate(1293.598 -23.03)">
        <path id="Path_60" data-name="Path 60" d="M39.783,0C61.754,0,80.33,21.436,80.33,43.407S61.754,79.565,39.783,79.565.765,65.378.765,43.407,17.811,0,39.783,0Z" transform="translate(602.62 302.551) rotate(45)" fill="#ffc440" opacity="0.904"/>
        <circle id="Ellipse_26" data-name="Ellipse 26" cx="7.957" cy="7.957" r="7.957" transform="translate(538.402 407.116)" fill="#fff"/>
        <line id="Line_48" data-name="Line 48" y2="63.652" transform="translate(596.993 364.438) rotate(45)" fill="none" stroke="#fff" stroke-width="2"/>
        <line id="Line_49" data-name="Line 49" x2="47.739" transform="translate(580.115 347.56) rotate(45)" fill="none" stroke="#fff" stroke-width="2"/>
        <line id="Line_50" data-name="Line 50" x1="17.902" y1="17.902" transform="translate(596.993 339.121) rotate(45)" fill="none" stroke="#fff" stroke-width="2"/>
        <line id="Line_51" data-name="Line 51" x1="17.902" y2="17.902" transform="translate(609.652 351.779) rotate(45)" fill="none" stroke="#fff" stroke-width="2"/>
        <line id="Line_52" data-name="Line 52" y2="23.869" transform="translate(613.872 347.56) rotate(45)" fill="none" stroke="#fff" stroke-width="2"/>
      </g>
      <circle id="Ellipse_27" data-name="Ellipse 27" cx="1" cy="1" r="1" transform="translate(1852 349)" fill="#fff"/>
      <circle id="Ellipse_28" data-name="Ellipse 28" cx="1" cy="1" r="1" transform="translate(1870 384)" fill="#fff"/>
      <circle id="Ellipse_29" data-name="Ellipse 29" cx="1" cy="1" r="1" transform="translate(1885 378)" fill="#fff"/>
      <path id="Path_61" data-name="Path 61" d="M1,0A1,1,0,1,1,0,1,1,1,0,0,1,1,0Z" transform="translate(1843 361)" fill="#fff"/>
      <line id="Line_53" data-name="Line 53" x1="4" y2="4" transform="translate(1880 372)" fill="none" stroke="#fff" stroke-linecap="round" stroke-width="1"/>
      <line id="Line_54" data-name="Line 54" x1="3" y2="3" transform="translate(1871 369)" fill="none" stroke="#fff" stroke-linecap="round" stroke-width="1"/>
      <line id="Line_55" data-name="Line 55" x1="8" y2="8" transform="translate(1858 350)" fill="none" stroke="#fff" stroke-linecap="round" stroke-width="1"/>
      <line id="Line_56" data-name="Line 56" x1="8" y2="8" transform="translate(1858 355)" fill="none" stroke="#fff" stroke-linecap="round" stroke-width="1"/>
      <line id="Line_57" data-name="Line 57" x1="2" y2="2" transform="translate(1876 378)" fill="none" stroke="#fff" stroke-linecap="round" stroke-width="1"/>
    </g>
  </g>
</svg>
