<svg xmlns="http://www.w3.org/2000/svg" xmlns:xlink="http://www.w3.org/1999/xlink" width="169.706" height="169.706" viewBox="0 0 169.706 169.706">
  <defs>
    <clipPath id="clip-path">
      <rect id="Rectangle_122" data-name="Rectangle 122" width="144" height="96" transform="translate(1776 432)" fill="none" stroke="red" stroke-width="1"/>
    </clipPath>
    <linearGradient id="linear-gradient" x1="1" y1="0.5" x2="0" y2="0.5" gradientUnits="objectBoundingBox">
      <stop offset="0" stop-color="#ffc440"/>
      <stop offset="1" stop-color="#ffc440" stop-opacity="0"/>
    </linearGradient>
  </defs>
  <g id="super1" transform="translate(-1561.292 1052.175) rotate(-45)" clip-path="url(#clip-path)">
    <path id="Path_75" data-name="Path 75" d="M0,0H96a48,48,0,0,1,48,48h0A48,48,0,0,1,96,96H0Z" transform="translate(1776 432)" opacity="0.03" fill="url(#linear-gradient)"/>
    <path id="Path_76" data-name="Path 76" d="M0,0H34a4,4,0,0,1,4,4h0a4,4,0,0,1-4,4H0Z" transform="translate(1786 440)" opacity="0.06" fill="url(#linear-gradient)"/>
    <path id="Path_77" data-name="Path 77" d="M0,0H20a4,4,0,0,1,4,4h0a4,4,0,0,1-4,4H0Z" transform="translate(1808 456)" opacity="0.06" fill="url(#linear-gradient)"/>
    <path id="Path_78" data-name="Path 78" d="M0,0H34a4,4,0,0,1,4,4h0a4,4,0,0,1-4,4H0Z" transform="translate(1816 504)" opacity="0.09" fill="url(#linear-gradient)"/>
    <path id="Path_79" data-name="Path 79" d="M0,0H20a4,4,0,0,1,4,4h0a4,4,0,0,1-4,4H0Z" transform="translate(1792 496)" opacity="0.08" fill="url(#linear-gradient)"/>
    <path id="Path_80" data-name="Path 80" d="M0,0H20a4,4,0,0,1,4,4h0a4,4,0,0,1-4,4H0Z" transform="translate(1776 512)" opacity="0.1" fill="url(#linear-gradient)"/>
    <circle id="Ellipse_44" data-name="Ellipse 44" cx="39.783" cy="39.783" r="39.783" transform="translate(1911.521 518.244) rotate(180)" fill="#ffc440" opacity="0.904"/>
    <circle id="Ellipse_45" data-name="Ellipse 45" cx="7.957" cy="7.957" r="7.957" transform="translate(1800.13 470.504) rotate(90)" fill="#fff"/>
    <line id="Line_93" data-name="Line 93" y2="63.652" transform="translate(1863.782 478.461) rotate(90)" fill="none" stroke="#fff" stroke-width="2"/>
    <line id="Line_94" data-name="Line 94" x2="47.739" transform="translate(1863.782 454.591) rotate(90)" fill="none" stroke="#fff" stroke-width="2"/>
    <line id="Line_95" data-name="Line 95" x1="17.902" y1="17.902" transform="translate(1881.685 460.559) rotate(90)" fill="none" stroke="#fff" stroke-width="2"/>
    <line id="Line_96" data-name="Line 96" x1="17.902" y2="17.902" transform="translate(1881.685 478.461) rotate(90)" fill="none" stroke="#fff" stroke-width="2"/>
    <line id="Line_97" data-name="Line 97" y2="23.869" transform="translate(1887.652 478.461) rotate(90)" fill="none" stroke="#fff" stroke-width="2"/>
  </g>
</svg>
