<svg xmlns="http://www.w3.org/2000/svg" xmlns:xlink="http://www.w3.org/1999/xlink" width="169.706" height="169.706" viewBox="0 0 169.706 169.706">
  <defs>
    <clipPath id="clip-path">
      <rect id="Rectangle_113" data-name="Rectangle 113" width="144" height="96" transform="translate(1944 432)" fill="none" stroke="red" stroke-width="1"/>
    </clipPath>
    <linearGradient id="linear-gradient" x1="1" y1="0.5" x2="0" y2="0.5" gradientUnits="objectBoundingBox">
      <stop offset="0" stop-color="#ffc440"/>
      <stop offset="1" stop-color="#ffc440" stop-opacity="0"/>
    </linearGradient>
  </defs>
  <g id="super4" transform="translate(-1680.086 1170.969) rotate(-45)" clip-path="url(#clip-path)">
    <path id="Path_52" data-name="Path 52" d="M0,0H96a48,48,0,0,1,48,48h0A48,48,0,0,1,96,96H0Z" transform="translate(1944 432)" opacity="0.497" fill="url(#linear-gradient)"/>
    <path id="Path_53" data-name="Path 53" d="M0,0H34a4,4,0,0,1,4,4h0a4,4,0,0,1-4,4H0Z" transform="translate(1965 440)" opacity="0.497" fill="url(#linear-gradient)"/>
    <path id="Path_54" data-name="Path 54" d="M0,0H20a4,4,0,0,1,4,4h0a4,4,0,0,1-4,4H0Z" transform="translate(1960 456)" opacity="0.497" fill="url(#linear-gradient)"/>
    <path id="Path_55" data-name="Path 55" d="M0,0H34a4,4,0,0,1,4,4h0a4,4,0,0,1-4,4H0Z" transform="translate(1992 504)" opacity="0.497" fill="url(#linear-gradient)"/>
    <path id="Path_56" data-name="Path 56" d="M0,0H20a4,4,0,0,1,4,4h0a4,4,0,0,1-4,4H0Z" transform="translate(1952 496)" opacity="0.497" fill="url(#linear-gradient)"/>
    <path id="Path_57" data-name="Path 57" d="M0,0H20a4,4,0,0,1,4,4h0a4,4,0,0,1-4,4H0Z" transform="translate(1968 512)" opacity="0.497" fill="url(#linear-gradient)"/>
    <circle id="Ellipse_14" data-name="Ellipse 14" cx="39.783" cy="39.783" r="39.783" transform="translate(2079.521 518.244) rotate(180)" fill="#ffc440" opacity="0.904"/>
    <circle id="Ellipse_15" data-name="Ellipse 15" cx="7.957" cy="7.957" r="7.957" transform="translate(1968.13 470.504) rotate(90)" fill="#fff"/>
    <line id="Line_23" data-name="Line 23" y2="63.652" transform="translate(2031.782 478.461) rotate(90)" fill="none" stroke="#fff" stroke-width="2"/>
    <line id="Line_24" data-name="Line 24" x2="47.739" transform="translate(2031.782 454.591) rotate(90)" fill="none" stroke="#fff" stroke-width="2"/>
    <line id="Line_25" data-name="Line 25" x1="17.902" y1="17.902" transform="translate(2049.685 460.559) rotate(90)" fill="none" stroke="#fff" stroke-width="2"/>
    <line id="Line_26" data-name="Line 26" x1="17.902" y2="17.902" transform="translate(2049.685 478.461) rotate(90)" fill="none" stroke="#fff" stroke-width="2"/>
    <line id="Line_27" data-name="Line 27" y2="23.869" transform="translate(2055.652 478.461) rotate(90)" fill="none" stroke="#fff" stroke-width="2"/>
  </g>
</svg>
