<svg xmlns="http://www.w3.org/2000/svg" width="80" height="80" viewBox="0 0 80 80">
  <g id="Air-Conditioner" transform="translate(-1036 -454)">
    <rect id="Rectangle_18" data-name="Rectangle 18" width="80" height="80" transform="translate(1036 454)" fill="#d1c8c3"/>
    <g id="XMLID_35_" transform="translate(1044.468 462)">
      <g id="XMLID_37_">
        <line id="Line_15" data-name="Line 15" x2="14" transform="translate(25 17)" fill="none" stroke="#1a1a1a" stroke-linecap="round" stroke-linejoin="round" stroke-miterlimit="10" stroke-width="2"/>
        <path id="Path_178" data-name="Path 178" d="M6,31V14a2.946,2.946,0,0,1,3-3H55a2.946,2.946,0,0,1,3,3V31" fill="none" stroke="#1a1a1a" stroke-linecap="round" stroke-linejoin="round" stroke-miterlimit="10" stroke-width="2"/>
        <path id="Path_179" data-name="Path 179" d="M54,31h4v1a4.951,4.951,0,0,1-5,5H11a4.951,4.951,0,0,1-5-5V31h4" fill="none" stroke="#1a1a1a" stroke-linecap="round" stroke-linejoin="round" stroke-miterlimit="10" stroke-width="2"/>
        <path id="Path_180" data-name="Path 180" d="M54,31v3H10V29H54Z" fill="none" stroke="#1a1a1a" stroke-linecap="round" stroke-linejoin="round" stroke-miterlimit="10" stroke-width="2"/>
      </g>
      <circle id="Ellipse_1" data-name="Ellipse 1" cx="1.5" cy="1.5" r="1.5" transform="translate(52 16)" fill="#1a1a1a"/>
      <path id="Path_181" data-name="Path 181" d="M8.9,50.3a2.21,2.21,0,0,0,2.5-1.6,2.62,2.62,0,0,0-2-3.1,3.153,3.153,0,0,0-3.8,2.6A4.1,4.1,0,0,0,8.8,53a5.122,5.122,0,0,0,5.8-3.5c.5-1.5.2-3.1.5-4.6A6.922,6.922,0,0,1,16.8,41" fill="none" stroke="#1a1a1a" stroke-linecap="round" stroke-linejoin="round" stroke-miterlimit="10" stroke-width="2"/>
      <path id="Path_182" data-name="Path 182" d="M55.1,50.3a2.21,2.21,0,0,1-2.5-1.6,2.62,2.62,0,0,1,2-3.1,3.153,3.153,0,0,1,3.8,2.6A4.1,4.1,0,0,1,55.2,53a5.122,5.122,0,0,1-5.8-3.5c-.5-1.5-.2-3.1-.5-4.6A6.922,6.922,0,0,0,47.2,41" fill="none" stroke="#1a1a1a" stroke-linecap="round" stroke-linejoin="round" stroke-miterlimit="10" stroke-width="2"/>
      <line id="Line_16" data-name="Line 16" y2="8" transform="translate(32 41)" fill="none" stroke="#1a1a1a" stroke-linecap="round" stroke-linejoin="round" stroke-miterlimit="10" stroke-width="2"/>
      <line id="Line_17" data-name="Line 17" x1="2" y2="7" transform="translate(23 41)" fill="none" stroke="#1a1a1a" stroke-linecap="round" stroke-linejoin="round" stroke-miterlimit="10" stroke-width="2"/>
      <line id="Line_18" data-name="Line 18" x2="2" y2="7" transform="translate(39 41)" fill="none" stroke="#1a1a1a" stroke-linecap="round" stroke-linejoin="round" stroke-miterlimit="10" stroke-width="2"/>
    </g>
  </g>
</svg>
