<svg xmlns="http://www.w3.org/2000/svg" width="80" height="80" viewBox="0 0 80 80">
  <g id="Child-Friendly" transform="translate(-1036 -454)">
    <rect id="Rectangle_18" data-name="Rectangle 18" width="80" height="80" transform="translate(1036 454)" fill="#d1c8c3"/>
    <g id="iconfinder_BABY_4-06_2760421" transform="translate(1044.3 461.8)">
      <path id="Path_190" data-name="Path 190" d="M2.3,0A2.3,2.3,0,1,1,0,2.3,2.3,2.3,0,0,1,2.3,0Z" transform="translate(34.5 27.4)" fill="none"/>
      <path id="Path_183" data-name="Path 183" d="M26.4,43.1a4.8,4.8,0,1,0,0,9.6,4.867,4.867,0,0,0,4.8-4.8A4.679,4.679,0,0,0,26.4,43.1Zm0,7.8a3,3,0,1,1,0-6,3.076,3.076,0,0,1,3,3A2.888,2.888,0,0,1,26.4,50.9Z" fill="none"/>
      <path id="Path_184" data-name="Path 184" d="M41,28.7H55.3A18.489,18.489,0,0,0,37.9,11.2V25.5A4.731,4.731,0,0,1,41,28.7Z" fill="none"/>
      <path id="Path_185" data-name="Path 185" d="M41,30.7A4.3,4.3,0,0,1,36.8,34a4.382,4.382,0,0,1-4.2-3.3H18.4A18.932,18.932,0,0,0,23,42a6.65,6.65,0,0,1,3.4-.9,6.807,6.807,0,0,1,6.8,6.8,18.839,18.839,0,0,0,7.1,0,6.807,6.807,0,0,1,6.8-6.8,6.65,6.65,0,0,1,3.4.9,18.106,18.106,0,0,0,4.6-11.3Z" fill="none"/>
      <path id="Path_186" data-name="Path 186" d="M47.2,43.1A4.8,4.8,0,1,0,52,47.9,4.679,4.679,0,0,0,47.2,43.1Zm0,7.8a3,3,0,1,1,3-3A2.946,2.946,0,0,1,47.2,50.9Z" fill="none"/>
      <path id="Path_187" data-name="Path 187" d="M26.4,44.9a3,3,0,1,0,0,6,3.076,3.076,0,0,0,3-3A2.888,2.888,0,0,0,26.4,44.9Zm0,4a1,1,0,1,1,1-1C27.5,48.5,27,48.9,26.4,48.9Z" fill="#1e0e10"/>
      <path id="Path_188" data-name="Path 188" d="M47.2,44.9a3,3,0,1,0,3,3A2.946,2.946,0,0,0,47.2,44.9Zm0,4a1,1,0,1,1,1-1A.945.945,0,0,1,47.2,48.9Z" fill="#1e0e10"/>
      <path id="Path_189" data-name="Path 189" d="M36.8,9.2a.945.945,0,0,0-1,1V25.5a4.341,4.341,0,0,0-3.2,3.2H17.9L13,19.5a1.05,1.05,0,0,0-.9-.5H7.7a1,1,0,0,0,0,2h3.9l4.8,9.1a20.494,20.494,0,0,0,5.1,13.2A7.113,7.113,0,0,0,19.6,48a6.807,6.807,0,0,0,6.8,6.8A7,7,0,0,0,33,49.9a24.5,24.5,0,0,0,3.8.4,15.814,15.814,0,0,0,3.8-.4,6.9,6.9,0,0,0,6.6,4.9,6.789,6.789,0,0,0,4.9-11.5A20.55,20.55,0,0,0,36.8,9.2Zm1,2.1A18.489,18.489,0,0,1,55.2,28.8H41a4.341,4.341,0,0,0-3.2-3.2Zm-1,16.1a2.3,2.3,0,1,1-2.3,2.3A2.4,2.4,0,0,1,36.8,27.4ZM26.4,52.8a4.8,4.8,0,1,1,0-9.6A4.867,4.867,0,0,1,31.2,48,4.738,4.738,0,0,1,26.4,52.8Zm20.8,0A4.8,4.8,0,1,1,52,48,4.738,4.738,0,0,1,47.2,52.8ZM50.6,42a6.65,6.65,0,0,0-3.4-.9,6.807,6.807,0,0,0-6.8,6.8,18.839,18.839,0,0,1-7.1,0,6.807,6.807,0,0,0-6.8-6.8,6.65,6.65,0,0,0-3.4.9,18.106,18.106,0,0,1-4.6-11.3H32.8A4.3,4.3,0,0,0,37,34a4.382,4.382,0,0,0,4.2-3.3H55.5A19.652,19.652,0,0,1,50.6,42Z" fill="#1e0e10"/>
    </g>
  </g>
</svg>
