<svg xmlns="http://www.w3.org/2000/svg" width="80" height="80" viewBox="0 0 80 80">
  <g id="Great-View" transform="translate(-1036 -454)">
    <rect id="Rectangle_18" data-name="Rectangle 18" width="80" height="80" transform="translate(1036 454)" fill="#d1c8c3"/>
    <g id="Icons" transform="translate(1053 472.36)">
      <circle id="Ellipse_2" data-name="Ellipse 2" cx="8.534" cy="8.534" r="8.534" transform="translate(26.274 22.067)" fill="none" stroke="#000" stroke-linejoin="round" stroke-miterlimit="10" stroke-width="2"/>
      <circle id="Ellipse_3" data-name="Ellipse 3" cx="8.534" cy="8.534" r="8.534" transform="translate(3 22.067)" fill="none" stroke="#000" stroke-linejoin="round" stroke-miterlimit="10" stroke-width="2"/>
      <path id="Path_191" data-name="Path 191" d="M14,11.1a3.1,3.1,0,1,1,6.206,0" transform="translate(6.067 1.655)" fill="none" stroke="#000" stroke-linejoin="round" stroke-miterlimit="10" stroke-width="2"/>
      <path id="Path_192" data-name="Path 192" d="M3.6,26.722l5.586-18A5.506,5.506,0,0,1,14.306,5h0a5.3,5.3,0,0,1,5.431,5.431V29.825" transform="translate(0.331 0)" fill="none" stroke="#000" stroke-linejoin="round" stroke-miterlimit="10" stroke-width="2"/>
      <path id="Path_193" data-name="Path 193" d="M34.137,26.722l-5.586-18A5.506,5.506,0,0,0,23.431,5h0A5.3,5.3,0,0,0,18,10.431V29.825" transform="translate(8.274 0)" fill="none" stroke="#000" stroke-linejoin="round" stroke-miterlimit="10" stroke-width="2"/>
    </g>
  </g>
</svg>
