<svg xmlns="http://www.w3.org/2000/svg" width="80" height="80" viewBox="0 0 80 80">
  <g id="Mini-Bar" transform="translate(-1036 -454)">
    <rect id="Rectangle_18" data-name="Rectangle 18" width="80" height="80" transform="translate(1036 454)" fill="#d1c8c3"/>
    <g id="iconfinder_beer_3883335" transform="translate(913.614 855.744)">
      <path id="Path_194" data-name="Path 194" d="M166.351-382.559a9.619,9.619,0,0,0-2.683,1.406l-.6.469-7.886.1c-4.347.048-8.193.162-8.549.259a5.04,5.04,0,0,0-2.65,2.78,9.109,9.109,0,0,0-.517,4.363c.42,2.424,1.454,3.588,3.458,3.878l.76.113V-358.9c0,5.834.065,10.7.162,11.247a7.336,7.336,0,0,0,3.992,5.317l1.1.517,7.385.048c7.143.048,7.4.032,8.387-.291a7.18,7.18,0,0,0,4.832-6.351v-.6h1.422a4.343,4.343,0,0,0,4.363-2.5l.436-.808v-13.251l-.436-.808a4.343,4.343,0,0,0-4.363-2.5h-1.422v-1.923l.63-.178c1.374-.372,1.955-1.212,1.955-2.86-.016-2.844-2.683-7.046-5.3-8.322a4.573,4.573,0,0,0-2.456-.566A6.754,6.754,0,0,0,166.351-382.559Zm3.394,2.214c1.7.792,4.056,4.2,4.25,6.125.129,1.357.452,1.293-6.028,1.293-6.529,0-5.85-.178-6.868,1.745a3.509,3.509,0,0,1-.97,1.277,5.53,5.53,0,0,1-2.763.048,4.816,4.816,0,0,1-.889-1.341c-.921-1.826-.711-1.729-3.588-1.729H150.4l-.582.5a3.639,3.639,0,0,1-2.44,1,1.214,1.214,0,0,1-1.164-.5,4.184,4.184,0,0,1-.63-3.394,4.471,4.471,0,0,1,1.454-2.844c.307-.162,2.424-.242,8.629-.339l8.225-.113.808-.63a4.9,4.9,0,0,1,3.474-1.422A3.412,3.412,0,0,1,169.745-380.345ZM154.8-369.761c.921,1.745,1.664,2.165,3.846,2.165,2.295,0,3.3-.533,4.218-2.246l.517-.986h8.08l-.048,11.668-.048,11.684-.372.776a5.435,5.435,0,0,1-2.7,2.521c-.856.323-1.228.339-7.724.339h-6.82l-.97-.469a5.379,5.379,0,0,1-2.618-2.731c-.259-.695-.291-1.584-.339-11.764l-.048-10.989.776-.517c.727-.469.873-.5,2.23-.517h1.454Zm22.058,3.62a3.3,3.3,0,0,1,.743,1.164,63.659,63.659,0,0,1,.113,6.432c-.048,5.591-.065,5.818-.388,6.254a2.71,2.71,0,0,1-2.586,1.18h-1.2v-15.708l1.357.048C176.209-366.706,176.29-366.674,176.855-366.141Z"/>
      <path id="Path_195" data-name="Path 195" d="M284.259-347.741a1.252,1.252,0,0,0-.259.792c0,.792.452,1.05,1.858,1.05,1.39,0,1.858-.259,1.858-1.034,0-.856-.388-1.067-1.907-1.067C284.84-348,284.436-347.935,284.259-347.741Z" transform="translate(-117.891 -29.129)"/>
      <path id="Path_196" data-name="Path 196" d="M206.437-266.725c-.339.291-.339.323-.307,7.078l.048,6.771.452.259a.705.705,0,0,0,.889,0l.436-.259.048-6.771c.032-6.755.032-6.787-.307-7.078a1.32,1.32,0,0,0-.63-.275A1.319,1.319,0,0,0,206.437-266.725Z" transform="translate(-52.594 -97.04)"/>
      <path id="Path_197" data-name="Path 197" d="M244.356-266.645,244-266.4v13.542l.356.242a.942.942,0,0,0,1.406-.162c.323-.42.339-.6.339-6.884v-6.448l-.4-.388A.889.889,0,0,0,244.356-266.645Z" transform="translate(-84.355 -97.136)"/>
      <path id="Path_198" data-name="Path 198" d="M282.323-266.677c-.307.307-.323.533-.323,6.949s.016,6.642.323,6.949a1.193,1.193,0,0,0,.727.323,1.192,1.192,0,0,0,.727-.323c.307-.307.323-.533.323-6.949s-.016-6.642-.323-6.949a1.192,1.192,0,0,0-.727-.323A1.193,1.193,0,0,0,282.323-266.677Z" transform="translate(-116.214 -97.04)"/>
    </g>
  </g>
</svg>
