<svg xmlns="http://www.w3.org/2000/svg" width="80" height="80" viewBox="0 0 80 80">
  <g id="Room-Service" transform="translate(-1036 -454)">
    <rect id="Rectangle_18" data-name="Rectangle 18" width="80" height="80" transform="translate(1036 454)" fill="#d1c8c3"/>
    <g id="Group_74" data-name="Group 74" transform="translate(61 69)">
      <g id="Ellipse_4" data-name="Ellipse 4" transform="translate(1018.879 400)" fill="none" stroke="#000" stroke-linecap="round" stroke-linejoin="round" stroke-width="2">
        <circle cx="2.686" cy="2.686" r="2.686" stroke="none"/>
        <circle cx="2.686" cy="2.686" r="1.686" fill="none"/>
      </g>
      <path id="Path_221" data-name="Path 221" d="M5042.4,2122.9s2.2-7.564,9.912-7.564,9.337,7.948,9.337,7.948h2.059v5h9.577v4.166h-2.274l.013,18.347h-7.579v2.816l-1.8,2.286" transform="translate(-4030.661 -1710.217)" fill="none" stroke="#000" stroke-linecap="round" stroke-linejoin="round" stroke-width="2"/>
      <path id="Path_222" data-name="Path 222" d="M5045.033,2163.32h-30.668v-18.173h-1.939v-4.367h9.72V2135.7h1.819" transform="translate(-4012.186 -1722.771)" fill="none" stroke="#000" stroke-linecap="round" stroke-linejoin="round" stroke-width="2"/>
      <line id="Line_19" data-name="Line 19" x2="23.023" transform="translate(1009.861 414.39)" fill="none" stroke="#000" stroke-linecap="round" stroke-width="2"/>
      <line id="Line_20" data-name="Line 20" x2="23.023" transform="translate(1009.861 417.843)" fill="none" stroke="#000" stroke-linecap="round" stroke-width="2"/>
      <path id="Path_223" data-name="Path 223" d="M4992.187,2165.772l-6.9-5.985h-7.47a2.843,2.843,0,0,0-1.389,2.346,1.683,1.683,0,0,0,1.389,1.771h7.47l6.9,8.092" transform="translate(-3990 -1737.613)" fill="none" stroke="#000" stroke-linecap="round" stroke-linejoin="round" stroke-width="2"/>
      <g id="Ellipse_5" data-name="Ellipse 5" transform="translate(1005.065 445.279)" fill="none" stroke="#000" stroke-linecap="round" stroke-linejoin="round" stroke-width="2">
        <circle cx="1.919" cy="1.919" r="1.919" stroke="none"/>
        <circle cx="1.919" cy="1.919" r="0.919" fill="none"/>
      </g>
      <g id="Ellipse_6" data-name="Ellipse 6" transform="translate(1028.088 445.279)" fill="none" stroke="#000" stroke-linecap="round" stroke-linejoin="round" stroke-width="2">
        <circle cx="2.11" cy="2.11" r="2.11" stroke="none"/>
        <circle cx="2.11" cy="2.11" r="1.11" fill="none"/>
      </g>
      <path id="Path_224" data-name="Path 224" d="M5033.827,2207.672v3.029l-2.154,2.059" transform="translate(-4024.048 -1767.124)" fill="none" stroke="#000" stroke-linecap="round" stroke-linejoin="round" stroke-width="2"/>
      <path id="Path_225" data-name="Path 225" d="M5055.935,2159.952h-38.213" transform="translate(-4015.45 -1737.581)" fill="none" stroke="#000" stroke-linecap="round" stroke-width="2"/>
    </g>
  </g>
</svg>
