<svg xmlns="http://www.w3.org/2000/svg" width="80" height="80" viewBox="0 0 80 80">
  <g id="Sofa" transform="translate(-668 -454)">
    <path id="Path_199" data-name="Path 199" d="M0,0H80V80H0Z" transform="translate(668 454)" fill="#d1c8c3"/>
    <g id="iconfinder_sofa_home_furniture_interiors_living_4944901" transform="translate(677.001 466.341)">
      <path id="Path_200" data-name="Path 200" d="M54.321,16.977a5.986,5.986,0,0,0-.864.088v-.891a4.645,4.645,0,0,0-4.641-4.641H13.524a4.646,4.646,0,0,0-4.641,4.641v.864a6.083,6.083,0,0,0-.867-.064,5.97,5.97,0,0,0-2.567.577A6.045,6.045,0,0,0,2,22.993v11.3A5.218,5.218,0,0,0,7.21,39.505h3.967L9.1,43.633a.663.663,0,0,0,1.184.6l2.375-4.724H49.678l2.377,4.724a.662.662,0,0,0,.59.363.67.67,0,0,0,.3-.07.663.663,0,0,0,.3-.89l-2.075-4.127h3.967a5.217,5.217,0,0,0,5.211-5.211v-11.3A6.028,6.028,0,0,0,54.321,16.977Zm-44.112-.8a3.318,3.318,0,0,1,3.315-3.315H48.816a3.318,3.318,0,0,1,3.315,3.315V17.4a6.006,6.006,0,0,0-.378,11.033.331.331,0,0,1,.19.3V29.5H10.4v-.766a.322.322,0,0,1,.187-.3,6,6,0,0,0-.378-11.029V16.174Zm48.8,18.121a3.889,3.889,0,0,1-3.885,3.885H7.211a3.89,3.89,0,0,1-3.885-3.885v-11.3a4.711,4.711,0,0,1,2.69-4.243,4.651,4.651,0,0,1,2-.449,4.692,4.692,0,0,1,2.007,8.935,1.655,1.655,0,0,0-.948,1.494V30.16a.662.662,0,0,0,.663.663H52.6a.664.664,0,0,0,.663-.663V28.731a1.662,1.662,0,0,0-.948-1.494,4.692,4.692,0,1,1,6.694-4.244v11.3Z" transform="translate(0 0)"/>
      <path id="Path_201" data-name="Path 201" d="M24.513,18.041a2.087,2.087,0,1,0-2.087-2.087A2.09,2.09,0,0,0,24.513,18.041Zm0-2.848a.761.761,0,1,1-.761.762A.763.763,0,0,1,24.513,15.193Z" transform="translate(6.657 0.761)"/>
      <path id="Path_202" data-name="Path 202" d="M24.513,22.175a2.086,2.086,0,1,0-2.087-2.087A2.09,2.09,0,0,0,24.513,22.175Zm0-2.847a.76.76,0,1,1-.761.76A.762.762,0,0,1,24.513,19.328Z" transform="translate(6.657 2.108)"/>
      <path id="Path_203" data-name="Path 203" d="M32.225,18.041a2.086,2.086,0,1,0-2.084-2.086A2.088,2.088,0,0,0,32.225,18.041Zm0-2.848a.76.76,0,1,1-.758.761A.763.763,0,0,1,32.225,15.193Z" transform="translate(9.171 0.761)"/>
      <path id="Path_204" data-name="Path 204" d="M32.225,22.175a2.086,2.086,0,1,0-2.084-2.087A2.088,2.088,0,0,0,32.225,22.175Zm0-2.847a.76.76,0,1,1-.758.76A.762.762,0,0,1,32.225,19.328Z" transform="translate(9.171 2.108)"/>
      <path id="Path_205" data-name="Path 205" d="M16.8,18.041a2.086,2.086,0,1,0-2.087-2.086A2.09,2.09,0,0,0,16.8,18.041Zm0-2.848a.76.76,0,1,1-.761.761A.763.763,0,0,1,16.8,15.193Z" transform="translate(4.143 0.761)"/>
      <path id="Path_206" data-name="Path 206" d="M16.8,22.175a2.086,2.086,0,1,0-2.087-2.087A2.09,2.09,0,0,0,16.8,22.175Zm0-2.847a.76.76,0,1,1-.761.76A.762.762,0,0,1,16.8,19.328Z" transform="translate(4.143 2.108)"/>
    </g>
  </g>
</svg>
