<svg xmlns="http://www.w3.org/2000/svg" width="80" height="80" viewBox="0 0 80 80">
  <g id="Television" transform="translate(-1036 -454)">
    <path id="Path_220" data-name="Path 220" d="M0,0H80V80H0Z" transform="translate(1036 454)" fill="#d1c8c3"/>
    <g id="iconfinder_TVelectronicstelevisionscreen_4276704" transform="translate(1037.2 463.075)">
      <g id="Group_49" data-name="Group 49" transform="translate(15.8 12.298)">
        <g id="Group_48" data-name="Group 48">
          <path id="Path_207" data-name="Path 207" d="M57.832,126.858H20.508a5.764,5.764,0,0,1-1.282-.057,2.6,2.6,0,0,1-1.991-2.708V96.233a4.9,4.9,0,0,1,.163-1.751,2.62,2.62,0,0,1,2.594-1.617H57.7a2.567,2.567,0,0,1,2.66,2.316c.105,1.426.01,2.89.01,4.316v19.217c0,1.828.01,3.656,0,5.484a2.6,2.6,0,0,1-2.536,2.66.718.718,0,0,0,0,1.436,4,4,0,0,0,3.943-3.991c.01-.536,0-1.072,0-1.608V96.5c0-.44.019-.89-.01-1.33a4,4,0,0,0-3.981-3.751c-1.378-.019-2.766,0-4.144,0H19.973a4.1,4.1,0,0,0-3.522,1.78,4.716,4.716,0,0,0-.651,2.756v28.117a4.075,4.075,0,0,0,1.933,3.656c1.33.785,3.158.545,4.651.545H57.832A.708.708,0,0,0,57.832,126.858Z" transform="translate(-15.8 -91.411)"/>
        </g>
      </g>
      <g id="Group_51" data-name="Group 51" transform="translate(18.379 16.784)">
        <g id="Group_50" data-name="Group 50" transform="translate(0)">
          <path id="Path_208" data-name="Path 208" d="M70.794,164.515q-10.58.545-21.179.134l-2.756-.115a2.42,2.42,0,0,1-1.6-.526,2.162,2.162,0,0,1-.718-1.378c-.105-.88-.124-1.78-.172-2.66q-.287-5.311-.182-10.642c.038-1.809.105-3.618.211-5.417.077-1.263-.105-2.871,1.168-3.608a4.187,4.187,0,0,1,1.971-.325c.89-.038,1.78-.067,2.68-.1,1.818-.057,3.627-.1,5.445-.115q5.354-.057,10.7.1l2.68.086a8.094,8.094,0,0,1,2.306.191c1.436.507,1.388,1.981,1.455,3.244q.258,5.34.2,10.7c-.019,1.818-.067,3.627-.134,5.445-.038.89-.077,1.78-.124,2.68a2.42,2.42,0,0,1-.545,1.617,2.068,2.068,0,0,1-1.407.689c-.919.067-.919,1.5,0,1.436a3.584,3.584,0,0,0,3.177-2.345,8.452,8.452,0,0,0,.278-2.555q.072-1.436.115-2.871.187-5.828.01-11.656c-.029-.986-.067-1.971-.115-2.967a10.152,10.152,0,0,0-.239-2.527,3.587,3.587,0,0,0-3.1-2.46c-1.9-.172-3.857-.153-5.771-.2-1.943-.048-3.885-.067-5.828-.077q-5.828-.014-11.656.22a6.7,6.7,0,0,0-2.345.306,3.576,3.576,0,0,0-1.617,1.321,4.053,4.053,0,0,0-.6,2.125c-.067.947-.124,1.9-.172,2.852-.191,3.857-.23,7.733-.105,11.6.057,1.933.144,3.866.3,5.8a3.632,3.632,0,0,0,2.306,3.206,7.794,7.794,0,0,0,2.4.278c.976.048,1.962.086,2.938.115q2.885.1,5.771.124,5.728.057,11.465-.172c.938-.038,1.866-.077,2.8-.124C71.713,165.9,71.713,164.467,70.794,164.515Z" transform="translate(-42.749 -138.292)"/>
        </g>
      </g>
      <g id="Group_53" data-name="Group 53" transform="translate(50.508 29.027)">
        <g id="Group_52" data-name="Group 52">
          <path id="Path_209" data-name="Path 209" d="M386.087,270.755a3.1,3.1,0,1,1-2.5-3.043,3.133,3.133,0,0,1,2.5,3.043.718.718,0,0,0,1.436,0,4.6,4.6,0,0,0-3.005-4.268,4.539,4.539,0,0,0-5.024,1.388,4.531,4.531,0,1,0,8.029,2.881A.718.718,0,0,0,386.087,270.755Z" transform="translate(-378.466 -266.221)"/>
        </g>
      </g>
      <g id="Group_55" data-name="Group 55" transform="translate(51.612 30.146)">
        <g id="Group_54" data-name="Group 54">
          <path id="Path_210" data-name="Path 210" d="M395.618,278.121l-5.4,5.4a.718.718,0,0,0,1.014,1.014l5.4-5.4a.718.718,0,0,0-1.014-1.014Z" transform="translate(-390.011 -277.911)"/>
        </g>
      </g>
      <g id="Group_57" data-name="Group 57" transform="translate(50.508 18.443)">
        <g id="Group_56" data-name="Group 56">
          <path id="Path_211" data-name="Path 211" d="M386.087,160.155a3.1,3.1,0,1,1-2.5-3.043,3.133,3.133,0,0,1,2.5,3.043.718.718,0,0,0,1.436,0,4.6,4.6,0,0,0-3.005-4.268,4.539,4.539,0,0,0-5.024,1.388,4.531,4.531,0,1,0,8.029,2.881A.718.718,0,0,0,386.087,160.155Z" transform="translate(-378.466 -155.621)"/>
        </g>
      </g>
      <g id="Group_59" data-name="Group 59" transform="translate(51.612 19.561)">
        <g id="Group_58" data-name="Group 58">
          <path id="Path_212" data-name="Path 212" d="M395.618,167.521l-5.4,5.4a.718.718,0,0,0,1.014,1.014l5.4-5.4a.718.718,0,0,0-1.014-1.014Z" transform="translate(-390.011 -167.311)"/>
        </g>
      </g>
      <g id="Group_61" data-name="Group 61" transform="translate(50.932 39.973)">
        <g id="Group_60" data-name="Group 60">
          <path id="Path_213" data-name="Path 213" d="M383.589,382.035H390.8a.718.718,0,0,0,0-1.436h-7.216a.718.718,0,0,0,0,1.436Z" transform="translate(-382.9 -380.6)"/>
        </g>
      </g>
      <g id="Group_63" data-name="Group 63" transform="translate(50.932 42.289)">
        <g id="Group_62" data-name="Group 62">
          <path id="Path_214" data-name="Path 214" d="M383.589,406.236H390.8a.718.718,0,0,0,0-1.435h-7.216a.718.718,0,0,0,0,1.435Z" transform="translate(-382.9 -404.8)"/>
        </g>
      </g>
      <g id="Group_65" data-name="Group 65" transform="translate(50.932 44.596)">
        <g id="Group_64" data-name="Group 64">
          <path id="Path_215" data-name="Path 215" d="M383.589,430.336H390.8a.718.718,0,0,0,0-1.435h-7.216a.718.718,0,0,0,0,1.435Z" transform="translate(-382.9 -428.9)"/>
        </g>
      </g>
      <g id="Group_67" data-name="Group 67" transform="translate(50.871 47.751)">
        <g id="Group_66" data-name="Group 66">
          <path id="Path_216" data-name="Path 216" d="M385.67,462.771c.163.775.1,2.105-.957,2.105s-1.12-1.34-.957-2.105c.191-.9-1.2-1.282-1.388-.383a5.28,5.28,0,0,0-.01,2.086,2.415,2.415,0,0,0,4.689,0,5.106,5.106,0,0,0-.01-2.086c-.172-.909-1.56-.526-1.369.383Z" transform="translate(-382.26 -461.868)"/>
        </g>
      </g>
      <g id="Group_69" data-name="Group 69" transform="translate(19.222 47.751)">
        <g id="Group_68" data-name="Group 68">
          <path id="Path_217" data-name="Path 217" d="M54.97,462.771c.163.775.1,2.105-.957,2.105s-1.12-1.34-.957-2.105c.191-.9-1.2-1.282-1.388-.383a5.28,5.28,0,0,0-.01,2.086,2.415,2.415,0,0,0,4.689,0,5.106,5.106,0,0,0-.01-2.086c-.172-.909-1.55-.526-1.369.383Z" transform="translate(-51.56 -461.868)"/>
        </g>
      </g>
      <g id="Group_71" data-name="Group 71" transform="translate(34.71 9.368)">
        <g id="Group_70" data-name="Group 70">
          <path id="Path_218" data-name="Path 218" d="M220.858,64.465a3.733,3.733,0,0,0-7.465,0c-.038.928,1.4.919,1.436,0a2.3,2.3,0,0,1,4.594,0c.038.919,1.474.919,1.436,0Z" transform="translate(-213.392 -60.8)"/>
        </g>
      </g>
      <g id="Group_73" data-name="Group 73" transform="translate(37.725 3.925)">
        <g id="Group_72" data-name="Group 72" transform="translate(0 0)">
          <path id="Path_219" data-name="Path 219" d="M246.336,10.076V4.621a.718.718,0,0,0-1.436,0v5.455a.718.718,0,0,0,1.436,0Z" transform="translate(-244.9 -3.925)"/>
        </g>
      </g>
    </g>
  </g>
</svg>
