<svg id="bg-back" xmlns="http://www.w3.org/2000/svg" width="2380" height="496" viewBox="0 0 2380 496">
  <g id="bg-back_move">
    <g id="Group_1" data-name="Group 1" transform="translate(-192 8)">
      <rect id="Rectangle_1" data-name="Rectangle 1" width="40" height="384" transform="translate(256 104)" fill="#2b6438"/>
      <rect id="Rectangle_2" data-name="Rectangle 2" width="144" height="320" rx="8" transform="translate(200)" fill="#2b6438"/>
      <rect id="Rectangle_3" data-name="Rectangle 3" width="80" height="96" rx="8" transform="translate(192 184)" fill="#2b6438"/>
      <rect id="Rectangle_4" data-name="Rectangle 4" width="80" height="96" rx="8" transform="translate(272 96)" fill="#2b6438"/>
      <rect id="Rectangle_5" data-name="Rectangle 5" width="80" height="96" rx="8" transform="translate(192 -8)" fill="#2b6438"/>
    </g>
    <g id="Group_2" data-name="Group 2" transform="translate(30 8)">
      <rect id="Rectangle_6" data-name="Rectangle 6" width="40" height="384" transform="translate(256 104)" fill="#2b6438"/>
      <rect id="Rectangle_7" data-name="Rectangle 7" width="144" height="320" rx="8" transform="translate(200)" fill="#2b6438"/>
      <rect id="Rectangle_8" data-name="Rectangle 8" width="80" height="96" rx="8" transform="translate(192 184)" fill="#2b6438"/>
      <rect id="Rectangle_9" data-name="Rectangle 9" width="80" height="96" rx="8" transform="translate(272 96)" fill="#2b6438"/>
      <rect id="Rectangle_10" data-name="Rectangle 10" width="80" height="96" rx="8" transform="translate(192 -8)" fill="#2b6438"/>
    </g>
    <g id="Group_3" data-name="Group 3" transform="translate(252 8)">
      <rect id="Rectangle_11" data-name="Rectangle 11" width="40" height="384" transform="translate(256 104)" fill="#2b6438"/>
      <rect id="Rectangle_12" data-name="Rectangle 12" width="144" height="320" rx="8" transform="translate(200)" fill="#2b6438"/>
      <rect id="Rectangle_13" data-name="Rectangle 13" width="80" height="96" rx="8" transform="translate(192 184)" fill="#2b6438"/>
      <rect id="Rectangle_14" data-name="Rectangle 14" width="80" height="96" rx="8" transform="translate(272 96)" fill="#2b6438"/>
      <rect id="Rectangle_15" data-name="Rectangle 15" width="80" height="96" rx="8" transform="translate(192 -8)" fill="#2b6438"/>
    </g>
    <g id="Group_4" data-name="Group 4" transform="translate(474 8)">
      <rect id="Rectangle_16" data-name="Rectangle 16" width="40" height="384" transform="translate(256 104)" fill="#2b6438"/>
      <rect id="Rectangle_17" data-name="Rectangle 17" width="144" height="320" rx="8" transform="translate(200)" fill="#2b6438"/>
      <rect id="Rectangle_18" data-name="Rectangle 18" width="80" height="96" rx="8" transform="translate(192 184)" fill="#2b6438"/>
      <rect id="Rectangle_19" data-name="Rectangle 19" width="80" height="96" rx="8" transform="translate(272 96)" fill="#2b6438"/>
      <rect id="Rectangle_20" data-name="Rectangle 20" width="80" height="96" rx="8" transform="translate(192 -8)" fill="#2b6438"/>
    </g>
    <g id="Group_5" data-name="Group 5" transform="translate(696 8)">
      <rect id="Rectangle_21" data-name="Rectangle 21" width="40" height="384" transform="translate(256 104)" fill="#2b6438"/>
      <rect id="Rectangle_22" data-name="Rectangle 22" width="144" height="320" rx="8" transform="translate(200)" fill="#2b6438"/>
      <rect id="Rectangle_23" data-name="Rectangle 23" width="80" height="96" rx="8" transform="translate(192 184)" fill="#2b6438"/>
      <rect id="Rectangle_24" data-name="Rectangle 24" width="80" height="96" rx="8" transform="translate(272 96)" fill="#2b6438"/>
      <rect id="Rectangle_25" data-name="Rectangle 25" width="80" height="96" rx="8" transform="translate(192 -8)" fill="#2b6438"/>
    </g>
    <g id="Group_6" data-name="Group 6" transform="translate(918 8)">
      <rect id="Rectangle_26" data-name="Rectangle 26" width="40" height="384" transform="translate(256 104)" fill="#2b6438"/>
      <rect id="Rectangle_27" data-name="Rectangle 27" width="144" height="320" rx="8" transform="translate(200)" fill="#2b6438"/>
      <rect id="Rectangle_28" data-name="Rectangle 28" width="80" height="96" rx="8" transform="translate(192 184)" fill="#2b6438"/>
      <rect id="Rectangle_29" data-name="Rectangle 29" width="80" height="96" rx="8" transform="translate(272 96)" fill="#2b6438"/>
      <rect id="Rectangle_30" data-name="Rectangle 30" width="80" height="96" rx="8" transform="translate(192 -8)" fill="#2b6438"/>
    </g>
    <g id="Group_7" data-name="Group 7" transform="translate(1140 8)">
      <rect id="Rectangle_31" data-name="Rectangle 31" width="40" height="384" transform="translate(256 104)" fill="#2b6438"/>
      <rect id="Rectangle_32" data-name="Rectangle 32" width="144" height="320" rx="8" transform="translate(200)" fill="#2b6438"/>
      <rect id="Rectangle_33" data-name="Rectangle 33" width="80" height="96" rx="8" transform="translate(192 184)" fill="#2b6438"/>
      <rect id="Rectangle_34" data-name="Rectangle 34" width="80" height="96" rx="8" transform="translate(272 96)" fill="#2b6438"/>
      <rect id="Rectangle_35" data-name="Rectangle 35" width="80" height="96" rx="8" transform="translate(192 -8)" fill="#2b6438"/>
    </g>
    <g id="Group_8" data-name="Group 8" transform="translate(1362 8)">
      <rect id="Rectangle_36" data-name="Rectangle 36" width="40" height="384" transform="translate(256 104)" fill="#2b6438"/>
      <rect id="Rectangle_37" data-name="Rectangle 37" width="144" height="320" rx="8" transform="translate(200)" fill="#2b6438"/>
      <rect id="Rectangle_38" data-name="Rectangle 38" width="80" height="96" rx="8" transform="translate(192 184)" fill="#2b6438"/>
      <rect id="Rectangle_39" data-name="Rectangle 39" width="80" height="96" rx="8" transform="translate(272 96)" fill="#2b6438"/>
      <rect id="Rectangle_40" data-name="Rectangle 40" width="80" height="96" rx="8" transform="translate(192 -8)" fill="#2b6438"/>
    </g>
    <g id="Group_9" data-name="Group 9" transform="translate(1584 8)">
      <rect id="Rectangle_41" data-name="Rectangle 41" width="40" height="384" transform="translate(256 104)" fill="#2b6438"/>
      <rect id="Rectangle_42" data-name="Rectangle 42" width="144" height="320" rx="8" transform="translate(200)" fill="#2b6438"/>
      <rect id="Rectangle_43" data-name="Rectangle 43" width="80" height="96" rx="8" transform="translate(192 184)" fill="#2b6438"/>
      <rect id="Rectangle_44" data-name="Rectangle 44" width="80" height="96" rx="8" transform="translate(272 96)" fill="#2b6438"/>
      <rect id="Rectangle_45" data-name="Rectangle 45" width="80" height="96" rx="8" transform="translate(192 -8)" fill="#2b6438"/>
    </g>
    <g id="Group_10" data-name="Group 10" transform="translate(1806 8)">
      <rect id="Rectangle_46" data-name="Rectangle 46" width="40" height="384" transform="translate(256 104)" fill="#2b6438"/>
      <rect id="Rectangle_47" data-name="Rectangle 47" width="144" height="320" rx="8" transform="translate(200)" fill="#2b6438"/>
      <rect id="Rectangle_48" data-name="Rectangle 48" width="80" height="96" rx="8" transform="translate(192 184)" fill="#2b6438"/>
      <rect id="Rectangle_49" data-name="Rectangle 49" width="80" height="96" rx="8" transform="translate(272 96)" fill="#2b6438"/>
      <rect id="Rectangle_50" data-name="Rectangle 50" width="80" height="96" rx="8" transform="translate(192 -8)" fill="#2b6438"/>
    </g>
    <g id="Group_11" data-name="Group 11" transform="translate(2028 8)">
      <rect id="Rectangle_51" data-name="Rectangle 51" width="40" height="384" transform="translate(256 104)" fill="#2b6438"/>
      <rect id="Rectangle_52" data-name="Rectangle 52" width="144" height="320" rx="8" transform="translate(200)" fill="#2b6438"/>
      <rect id="Rectangle_53" data-name="Rectangle 53" width="80" height="96" rx="8" transform="translate(192 184)" fill="#2b6438"/>
      <rect id="Rectangle_54" data-name="Rectangle 54" width="80" height="96" rx="8" transform="translate(272 96)" fill="#2b6438"/>
      <rect id="Rectangle_55" data-name="Rectangle 55" width="80" height="96" rx="8" transform="translate(192 -8)" fill="#2b6438"/>
    </g>
  </g>
</svg>
