<svg xmlns="http://www.w3.org/2000/svg" xmlns:xlink="http://www.w3.org/1999/xlink" width="3008" height="600" viewBox="0 0 3008 600">
  <defs>
    <clipPath id="clip-path">
      <rect id="Rectangle_18" data-name="Rectangle 18" width="640" height="600" transform="translate(64 64)" fill="#fff" stroke="#707070" stroke-width="1"/>
    </clipPath>
  </defs>
  <g id="bg-front_move" transform="translate(592)">
    <g id="Group_6" data-name="Group 6" transform="translate(200)">
      <g id="Group_5" data-name="Group 5" transform="translate(-264 -64)" clip-path="url(#clip-path)">
        <g id="Group_4" data-name="Group 4" transform="translate(160 64)">
          <path id="Path_10" data-name="Path 10" d="M-1114.5,40.625H-1371a78.4,78.4,0,0,1,64.166-77.09,53.44,53.44,0,0,1,53.4-51.16h55.5A49.818,49.818,0,0,1-1157-109h64.125A49.875,49.875,0,0,1-1043-59.125h14A49.9,49.9,0,0,1-981.191-23.5l2.066,0A64.125,64.125,0,0,1-915,40.625Z" transform="translate(1355 559.375)" fill="#7ebe8d"/>
          <g id="Rectangle_4" data-name="Rectangle 4" transform="translate(104)" fill="#6aa778" stroke="#6aa778" stroke-width="1">
            <rect width="192" height="600" stroke="none"/>
            <rect x="0.5" y="0.5" width="191" height="599" fill="none"/>
          </g>
          <g id="Rectangle_5" data-name="Rectangle 5" fill="#6aa778" stroke="#6aa778" stroke-width="1">
            <rect width="448" height="80" stroke="none"/>
            <rect x="0.5" y="0.5" width="447" height="79" fill="none"/>
          </g>
          <g id="Rectangle_6" data-name="Rectangle 6" transform="translate(320 40)" fill="#6aa778" stroke="#6aa778" stroke-width="1">
            <rect width="224" height="120" rx="8" stroke="none"/>
            <rect x="0.5" y="0.5" width="223" height="119" rx="7.5" fill="none"/>
          </g>
          <g id="Rectangle_7" data-name="Rectangle 7" transform="translate(-96 16)" fill="#6aa778" stroke="#6aa778" stroke-width="1">
            <rect width="160" height="120" rx="8" stroke="none"/>
            <rect x="0.5" y="0.5" width="159" height="119" rx="7.5" fill="none"/>
          </g>
          <g id="Rectangle_8" data-name="Rectangle 8" transform="translate(208 176)" fill="#6aa778" stroke="#6aa778" stroke-width="1">
            <rect width="224" height="24" stroke="none"/>
            <rect x="0.5" y="0.5" width="223" height="23" fill="none"/>
          </g>
          <g id="Rectangle_9" data-name="Rectangle 9" transform="translate(59 96)" fill="#6aa778" stroke="#6aa778" stroke-width="1">
            <rect width="50" height="24" stroke="none"/>
            <rect x="0.5" y="0.5" width="49" height="23" fill="none"/>
          </g>
          <g id="Rectangle_10" data-name="Rectangle 10" transform="translate(424 128)" fill="#6aa778" stroke="#6aa778" stroke-width="1">
            <rect width="24" height="72" rx="8" stroke="none"/>
            <rect x="0.5" y="0.5" width="23" height="71" rx="7.5" fill="none"/>
          </g>
          <g id="Rectangle_11" data-name="Rectangle 11" transform="translate(88 152)" fill="#6aa778" stroke="#6aa778" stroke-width="1">
            <rect width="32" height="24" rx="8" stroke="none"/>
            <rect x="0.5" y="0.5" width="31" height="23" rx="7.5" fill="none"/>
          </g>
          <path id="Path_11" data-name="Path 11" d="M-1243,59h-128a56.011,56.011,0,0,1,48.635-55.521A56.477,56.477,0,0,1-1323-5a56,56,0,0,1,51.345-55.809A60.025,60.025,0,0,1-1215-101h64a60,60,0,0,1,60,60,60.267,60.267,0,0,1-1.218,12.087A44.018,44.018,0,0,1-1051.532,8.14,56.008,56.008,0,0,1-1019,59Z" transform="translate(1275 541)" fill="#7ebe8d"/>
          <rect id="Rectangle_12" data-name="Rectangle 12" width="8" height="16" rx="4" transform="translate(248 592)" fill="#cbffb4"/>
          <rect id="Rectangle_13" data-name="Rectangle 13" width="8" height="16" rx="4" transform="translate(240 592)" fill="#cbffb4"/>
          <rect id="Rectangle_14" data-name="Rectangle 14" width="8" height="16" rx="4" transform="translate(24 592)" fill="#cbffb4"/>
          <rect id="Rectangle_15" data-name="Rectangle 15" width="8" height="32" rx="4" transform="translate(408 576)" fill="#cbffb4"/>
          <rect id="Rectangle_16" data-name="Rectangle 16" width="8" height="16" rx="4" transform="translate(256 592)" fill="#cbffb4"/>
          <rect id="Rectangle_17" data-name="Rectangle 17" width="8" height="16" rx="4" transform="translate(424 592)" fill="#cbffb4"/>
        </g>
      </g>
    </g>
    <g id="Group_9" data-name="Group 9" transform="translate(792)">
      <g id="Group_8" data-name="Group 8" transform="translate(-264 -64)" clip-path="url(#clip-path)">
        <g id="Group_7" data-name="Group 7" transform="translate(160 64)">
          <path id="Path_12" data-name="Path 12" d="M-1114.5,40.625H-1371a78.4,78.4,0,0,1,64.166-77.09,53.44,53.44,0,0,1,53.4-51.16h55.5A49.818,49.818,0,0,1-1157-109h64.125A49.875,49.875,0,0,1-1043-59.125h14A49.9,49.9,0,0,1-981.191-23.5l2.066,0A64.125,64.125,0,0,1-915,40.625Z" transform="translate(1355 559.375)" fill="#7ebe8d"/>
          <g id="Rectangle_19" data-name="Rectangle 19" transform="translate(104)" fill="#6aa778" stroke="#6aa778" stroke-width="1">
            <rect width="192" height="600" stroke="none"/>
            <rect x="0.5" y="0.5" width="191" height="599" fill="none"/>
          </g>
          <g id="Rectangle_20" data-name="Rectangle 20" fill="#6aa778" stroke="#6aa778" stroke-width="1">
            <rect width="448" height="80" stroke="none"/>
            <rect x="0.5" y="0.5" width="447" height="79" fill="none"/>
          </g>
          <g id="Rectangle_21" data-name="Rectangle 21" transform="translate(320 40)" fill="#6aa778" stroke="#6aa778" stroke-width="1">
            <rect width="224" height="120" rx="8" stroke="none"/>
            <rect x="0.5" y="0.5" width="223" height="119" rx="7.5" fill="none"/>
          </g>
          <g id="Rectangle_22" data-name="Rectangle 22" transform="translate(-96 16)" fill="#6aa778" stroke="#6aa778" stroke-width="1">
            <rect width="160" height="120" rx="8" stroke="none"/>
            <rect x="0.5" y="0.5" width="159" height="119" rx="7.5" fill="none"/>
          </g>
          <g id="Rectangle_23" data-name="Rectangle 23" transform="translate(208 176)" fill="#6aa778" stroke="#6aa778" stroke-width="1">
            <rect width="224" height="24" stroke="none"/>
            <rect x="0.5" y="0.5" width="223" height="23" fill="none"/>
          </g>
          <g id="Rectangle_24" data-name="Rectangle 24" transform="translate(59 96)" fill="#6aa778" stroke="#6aa778" stroke-width="1">
            <rect width="50" height="24" stroke="none"/>
            <rect x="0.5" y="0.5" width="49" height="23" fill="none"/>
          </g>
          <g id="Rectangle_25" data-name="Rectangle 25" transform="translate(424 128)" fill="#6aa778" stroke="#6aa778" stroke-width="1">
            <rect width="24" height="72" rx="8" stroke="none"/>
            <rect x="0.5" y="0.5" width="23" height="71" rx="7.5" fill="none"/>
          </g>
          <g id="Rectangle_26" data-name="Rectangle 26" transform="translate(88 152)" fill="#6aa778" stroke="#6aa778" stroke-width="1">
            <rect width="32" height="24" rx="8" stroke="none"/>
            <rect x="0.5" y="0.5" width="31" height="23" rx="7.5" fill="none"/>
          </g>
          <path id="Path_13" data-name="Path 13" d="M-1243,59h-128a56.011,56.011,0,0,1,48.635-55.521A56.477,56.477,0,0,1-1323-5a56,56,0,0,1,51.345-55.809A60.025,60.025,0,0,1-1215-101h64a60,60,0,0,1,60,60,60.267,60.267,0,0,1-1.218,12.087A44.018,44.018,0,0,1-1051.532,8.14,56.008,56.008,0,0,1-1019,59Z" transform="translate(1275 541)" fill="#7ebe8d"/>
          <rect id="Rectangle_27" data-name="Rectangle 27" width="8" height="16" rx="4" transform="translate(248 592)" fill="#cbffb4"/>
          <rect id="Rectangle_28" data-name="Rectangle 28" width="8" height="16" rx="4" transform="translate(240 592)" fill="#cbffb4"/>
          <rect id="Rectangle_29" data-name="Rectangle 29" width="8" height="16" rx="4" transform="translate(24 592)" fill="#cbffb4"/>
          <rect id="Rectangle_30" data-name="Rectangle 30" width="8" height="32" rx="4" transform="translate(408 576)" fill="#cbffb4"/>
          <rect id="Rectangle_31" data-name="Rectangle 31" width="8" height="16" rx="4" transform="translate(256 592)" fill="#cbffb4"/>
          <rect id="Rectangle_32" data-name="Rectangle 32" width="8" height="16" rx="4" transform="translate(424 592)" fill="#cbffb4"/>
        </g>
      </g>
    </g>
    <g id="Group_12" data-name="Group 12" transform="translate(1384)">
      <g id="Group_11" data-name="Group 11" transform="translate(-264 -64)" clip-path="url(#clip-path)">
        <g id="Group_10" data-name="Group 10" transform="translate(160 64)">
          <path id="Path_14" data-name="Path 14" d="M-1114.5,40.625H-1371a78.4,78.4,0,0,1,64.166-77.09,53.44,53.44,0,0,1,53.4-51.16h55.5A49.818,49.818,0,0,1-1157-109h64.125A49.875,49.875,0,0,1-1043-59.125h14A49.9,49.9,0,0,1-981.191-23.5l2.066,0A64.125,64.125,0,0,1-915,40.625Z" transform="translate(1355 559.375)" fill="#7ebe8d"/>
          <g id="Rectangle_34" data-name="Rectangle 34" transform="translate(104)" fill="#6aa778" stroke="#6aa778" stroke-width="1">
            <rect width="192" height="600" stroke="none"/>
            <rect x="0.5" y="0.5" width="191" height="599" fill="none"/>
          </g>
          <g id="Rectangle_35" data-name="Rectangle 35" fill="#6aa778" stroke="#6aa778" stroke-width="1">
            <rect width="448" height="80" stroke="none"/>
            <rect x="0.5" y="0.5" width="447" height="79" fill="none"/>
          </g>
          <g id="Rectangle_36" data-name="Rectangle 36" transform="translate(320 40)" fill="#6aa778" stroke="#6aa778" stroke-width="1">
            <rect width="224" height="120" rx="8" stroke="none"/>
            <rect x="0.5" y="0.5" width="223" height="119" rx="7.5" fill="none"/>
          </g>
          <g id="Rectangle_37" data-name="Rectangle 37" transform="translate(-96 16)" fill="#6aa778" stroke="#6aa778" stroke-width="1">
            <rect width="160" height="120" rx="8" stroke="none"/>
            <rect x="0.5" y="0.5" width="159" height="119" rx="7.5" fill="none"/>
          </g>
          <g id="Rectangle_38" data-name="Rectangle 38" transform="translate(208 176)" fill="#6aa778" stroke="#6aa778" stroke-width="1">
            <rect width="224" height="24" stroke="none"/>
            <rect x="0.5" y="0.5" width="223" height="23" fill="none"/>
          </g>
          <g id="Rectangle_39" data-name="Rectangle 39" transform="translate(59 96)" fill="#6aa778" stroke="#6aa778" stroke-width="1">
            <rect width="50" height="24" stroke="none"/>
            <rect x="0.5" y="0.5" width="49" height="23" fill="none"/>
          </g>
          <g id="Rectangle_40" data-name="Rectangle 40" transform="translate(424 128)" fill="#6aa778" stroke="#6aa778" stroke-width="1">
            <rect width="24" height="72" rx="8" stroke="none"/>
            <rect x="0.5" y="0.5" width="23" height="71" rx="7.5" fill="none"/>
          </g>
          <g id="Rectangle_41" data-name="Rectangle 41" transform="translate(88 152)" fill="#6aa778" stroke="#6aa778" stroke-width="1">
            <rect width="32" height="24" rx="8" stroke="none"/>
            <rect x="0.5" y="0.5" width="31" height="23" rx="7.5" fill="none"/>
          </g>
          <path id="Path_15" data-name="Path 15" d="M-1243,59h-128a56.011,56.011,0,0,1,48.635-55.521A56.477,56.477,0,0,1-1323-5a56,56,0,0,1,51.345-55.809A60.025,60.025,0,0,1-1215-101h64a60,60,0,0,1,60,60,60.267,60.267,0,0,1-1.218,12.087A44.018,44.018,0,0,1-1051.532,8.14,56.008,56.008,0,0,1-1019,59Z" transform="translate(1275 541)" fill="#7ebe8d"/>
          <rect id="Rectangle_42" data-name="Rectangle 42" width="8" height="16" rx="4" transform="translate(248 592)" fill="#cbffb4"/>
          <rect id="Rectangle_43" data-name="Rectangle 43" width="8" height="16" rx="4" transform="translate(240 592)" fill="#cbffb4"/>
          <rect id="Rectangle_44" data-name="Rectangle 44" width="8" height="16" rx="4" transform="translate(24 592)" fill="#cbffb4"/>
          <rect id="Rectangle_45" data-name="Rectangle 45" width="8" height="32" rx="4" transform="translate(408 576)" fill="#cbffb4"/>
          <rect id="Rectangle_46" data-name="Rectangle 46" width="8" height="16" rx="4" transform="translate(256 592)" fill="#cbffb4"/>
          <rect id="Rectangle_47" data-name="Rectangle 47" width="8" height="16" rx="4" transform="translate(424 592)" fill="#cbffb4"/>
        </g>
      </g>
    </g>
    <g id="Group_15" data-name="Group 15" transform="translate(1976)">
      <g id="Group_14" data-name="Group 14" transform="translate(-264 -64)" clip-path="url(#clip-path)">
        <g id="Group_13" data-name="Group 13" transform="translate(160 64)">
          <path id="Path_16" data-name="Path 16" d="M-1114.5,40.625H-1371a78.4,78.4,0,0,1,64.166-77.09,53.44,53.44,0,0,1,53.4-51.16h55.5A49.818,49.818,0,0,1-1157-109h64.125A49.875,49.875,0,0,1-1043-59.125h14A49.9,49.9,0,0,1-981.191-23.5l2.066,0A64.125,64.125,0,0,1-915,40.625Z" transform="translate(1355 559.375)" fill="#7ebe8d"/>
          <g id="Rectangle_49" data-name="Rectangle 49" transform="translate(104)" fill="#6aa778" stroke="#6aa778" stroke-width="1">
            <rect width="192" height="600" stroke="none"/>
            <rect x="0.5" y="0.5" width="191" height="599" fill="none"/>
          </g>
          <g id="Rectangle_50" data-name="Rectangle 50" fill="#6aa778" stroke="#6aa778" stroke-width="1">
            <rect width="448" height="80" stroke="none"/>
            <rect x="0.5" y="0.5" width="447" height="79" fill="none"/>
          </g>
          <g id="Rectangle_51" data-name="Rectangle 51" transform="translate(320 40)" fill="#6aa778" stroke="#6aa778" stroke-width="1">
            <rect width="224" height="120" rx="8" stroke="none"/>
            <rect x="0.5" y="0.5" width="223" height="119" rx="7.5" fill="none"/>
          </g>
          <g id="Rectangle_52" data-name="Rectangle 52" transform="translate(-96 16)" fill="#6aa778" stroke="#6aa778" stroke-width="1">
            <rect width="160" height="120" rx="8" stroke="none"/>
            <rect x="0.5" y="0.5" width="159" height="119" rx="7.5" fill="none"/>
          </g>
          <g id="Rectangle_53" data-name="Rectangle 53" transform="translate(208 176)" fill="#6aa778" stroke="#6aa778" stroke-width="1">
            <rect width="224" height="24" stroke="none"/>
            <rect x="0.5" y="0.5" width="223" height="23" fill="none"/>
          </g>
          <g id="Rectangle_54" data-name="Rectangle 54" transform="translate(59 96)" fill="#6aa778" stroke="#6aa778" stroke-width="1">
            <rect width="50" height="24" stroke="none"/>
            <rect x="0.5" y="0.5" width="49" height="23" fill="none"/>
          </g>
          <g id="Rectangle_55" data-name="Rectangle 55" transform="translate(424 128)" fill="#6aa778" stroke="#6aa778" stroke-width="1">
            <rect width="24" height="72" rx="8" stroke="none"/>
            <rect x="0.5" y="0.5" width="23" height="71" rx="7.5" fill="none"/>
          </g>
          <g id="Rectangle_56" data-name="Rectangle 56" transform="translate(88 152)" fill="#6aa778" stroke="#6aa778" stroke-width="1">
            <rect width="32" height="24" rx="8" stroke="none"/>
            <rect x="0.5" y="0.5" width="31" height="23" rx="7.5" fill="none"/>
          </g>
          <path id="Path_17" data-name="Path 17" d="M-1243,59h-128a56.011,56.011,0,0,1,48.635-55.521A56.477,56.477,0,0,1-1323-5a56,56,0,0,1,51.345-55.809A60.025,60.025,0,0,1-1215-101h64a60,60,0,0,1,60,60,60.267,60.267,0,0,1-1.218,12.087A44.018,44.018,0,0,1-1051.532,8.14,56.008,56.008,0,0,1-1019,59Z" transform="translate(1275 541)" fill="#7ebe8d"/>
          <rect id="Rectangle_57" data-name="Rectangle 57" width="8" height="16" rx="4" transform="translate(248 592)" fill="#cbffb4"/>
          <rect id="Rectangle_58" data-name="Rectangle 58" width="8" height="16" rx="4" transform="translate(240 592)" fill="#cbffb4"/>
          <rect id="Rectangle_59" data-name="Rectangle 59" width="8" height="16" rx="4" transform="translate(24 592)" fill="#cbffb4"/>
          <rect id="Rectangle_60" data-name="Rectangle 60" width="8" height="32" rx="4" transform="translate(408 576)" fill="#cbffb4"/>
          <rect id="Rectangle_61" data-name="Rectangle 61" width="8" height="16" rx="4" transform="translate(256 592)" fill="#cbffb4"/>
          <rect id="Rectangle_62" data-name="Rectangle 62" width="8" height="16" rx="4" transform="translate(424 592)" fill="#cbffb4"/>
        </g>
      </g>
    </g>
    <g id="Group_91" data-name="Group 91" transform="translate(-656 -64)" clip-path="url(#clip-path)">
      <g id="Group_90" data-name="Group 90" transform="translate(160 64)">
        <path id="Path_140" data-name="Path 140" d="M-1114.5,40.625H-1371a78.4,78.4,0,0,1,64.166-77.09,53.44,53.44,0,0,1,53.4-51.16h55.5A49.818,49.818,0,0,1-1157-109h64.125A49.875,49.875,0,0,1-1043-59.125h14A49.9,49.9,0,0,1-981.191-23.5l2.066,0A64.125,64.125,0,0,1-915,40.625Z" transform="translate(1355 559.375)" fill="#7ebe8d"/>
        <g id="Rectangle_160" data-name="Rectangle 160" transform="translate(104)" fill="#6aa778" stroke="#6aa778" stroke-width="1">
          <rect width="192" height="600" stroke="none"/>
          <rect x="0.5" y="0.5" width="191" height="599" fill="none"/>
        </g>
        <g id="Rectangle_161" data-name="Rectangle 161" fill="#6aa778" stroke="#6aa778" stroke-width="1">
          <rect width="448" height="80" stroke="none"/>
          <rect x="0.5" y="0.5" width="447" height="79" fill="none"/>
        </g>
        <g id="Rectangle_162" data-name="Rectangle 162" transform="translate(320 40)" fill="#6aa778" stroke="#6aa778" stroke-width="1">
          <rect width="224" height="120" rx="8" stroke="none"/>
          <rect x="0.5" y="0.5" width="223" height="119" rx="7.5" fill="none"/>
        </g>
        <g id="Rectangle_163" data-name="Rectangle 163" transform="translate(-96 16)" fill="#6aa778" stroke="#6aa778" stroke-width="1">
          <rect width="160" height="120" rx="8" stroke="none"/>
          <rect x="0.5" y="0.5" width="159" height="119" rx="7.5" fill="none"/>
        </g>
        <g id="Rectangle_164" data-name="Rectangle 164" transform="translate(208 176)" fill="#6aa778" stroke="#6aa778" stroke-width="1">
          <rect width="224" height="24" stroke="none"/>
          <rect x="0.5" y="0.5" width="223" height="23" fill="none"/>
        </g>
        <g id="Rectangle_165" data-name="Rectangle 165" transform="translate(59 96)" fill="#6aa778" stroke="#6aa778" stroke-width="1">
          <rect width="50" height="24" stroke="none"/>
          <rect x="0.5" y="0.5" width="49" height="23" fill="none"/>
        </g>
        <g id="Rectangle_166" data-name="Rectangle 166" transform="translate(424 128)" fill="#6aa778" stroke="#6aa778" stroke-width="1">
          <rect width="24" height="72" rx="8" stroke="none"/>
          <rect x="0.5" y="0.5" width="23" height="71" rx="7.5" fill="none"/>
        </g>
        <g id="Rectangle_167" data-name="Rectangle 167" transform="translate(88 152)" fill="#6aa778" stroke="#6aa778" stroke-width="1">
          <rect width="32" height="24" rx="8" stroke="none"/>
          <rect x="0.5" y="0.5" width="31" height="23" rx="7.5" fill="none"/>
        </g>
        <path id="Path_141" data-name="Path 141" d="M-1243,59h-128a56.011,56.011,0,0,1,48.635-55.521A56.477,56.477,0,0,1-1323-5a56,56,0,0,1,51.345-55.809A60.025,60.025,0,0,1-1215-101h64a60,60,0,0,1,60,60,60.267,60.267,0,0,1-1.218,12.087A44.018,44.018,0,0,1-1051.532,8.14,56.008,56.008,0,0,1-1019,59Z" transform="translate(1275 541)" fill="#7ebe8d"/>
        <rect id="Rectangle_168" data-name="Rectangle 168" width="8" height="16" rx="4" transform="translate(248 592)" fill="#cbffb4"/>
        <rect id="Rectangle_169" data-name="Rectangle 169" width="8" height="16" rx="4" transform="translate(240 592)" fill="#cbffb4"/>
        <rect id="Rectangle_170" data-name="Rectangle 170" width="8" height="16" rx="4" transform="translate(24 592)" fill="#cbffb4"/>
        <rect id="Rectangle_171" data-name="Rectangle 171" width="8" height="32" rx="4" transform="translate(408 576)" fill="#cbffb4"/>
        <rect id="Rectangle_172" data-name="Rectangle 172" width="8" height="16" rx="4" transform="translate(256 592)" fill="#cbffb4"/>
        <rect id="Rectangle_173" data-name="Rectangle 173" width="8" height="16" rx="4" transform="translate(424 592)" fill="#cbffb4"/>
      </g>
    </g>
  </g>
</svg>
