<svg id="bg-middle" xmlns="http://www.w3.org/2000/svg" width="2540" height="600" viewBox="0 0 2540 600">
  <g id="Group_17" data-name="Group 17" transform="translate(-136)">
    <rect id="Rectangle_83" data-name="Rectangle 83" width="96" height="384" transform="translate(248 216)" fill="#519160"/>
    <path id="Path_18" data-name="Path 18" d="M8,0h8a8,8,0,0,1,8,8V176a8,8,0,0,1-8,8H0V8A8,8,0,0,1,8,0Z" transform="translate(376 216)" fill="#519160"/>
    <path id="Path_19" data-name="Path 19" d="M0,0H256V352a8,8,0,0,1-8,8H8a8,8,0,0,1-8-8Z" transform="translate(168)" fill="#519160"/>
    <rect id="Rectangle_84" data-name="Rectangle 84" width="168" height="136" rx="8" transform="translate(288 208)" fill="#519160"/>
    <rect id="Rectangle_85" data-name="Rectangle 85" width="168" height="136" rx="8" transform="translate(136 144)" fill="#519160"/>
    <rect id="Rectangle_86" data-name="Rectangle 86" width="48" height="24" transform="translate(336 376)" fill="#519160"/>
    <path id="Path_20" data-name="Path 20" d="M-1114.5,40.625H-1235a86.4,86.4,0,0,1,69.389-84.705,49.87,49.87,0,0,1,44.486-27.295h1.424a49.894,49.894,0,0,1,46.576-32H-1033a49.9,49.9,0,0,1,48.016,36.341A49.883,49.883,0,0,1-955.5-21.5q0,1.241-.06,2.468A64.146,64.146,0,0,1-915,40.625Z" transform="translate(1371 559.375)" fill="#519160"/>
  </g>
  <g id="Group_18" data-name="Group 18" transform="translate(308)">
    <rect id="Rectangle_87" data-name="Rectangle 87" width="96" height="384" transform="translate(248 216)" fill="#519160"/>
    <path id="Path_21" data-name="Path 21" d="M8,0h8a8,8,0,0,1,8,8V176a8,8,0,0,1-8,8H0V8A8,8,0,0,1,8,0Z" transform="translate(376 216)" fill="#519160"/>
    <path id="Path_22" data-name="Path 22" d="M0,0H256V352a8,8,0,0,1-8,8H8a8,8,0,0,1-8-8Z" transform="translate(168)" fill="#519160"/>
    <rect id="Rectangle_88" data-name="Rectangle 88" width="168" height="136" rx="8" transform="translate(288 208)" fill="#519160"/>
    <rect id="Rectangle_89" data-name="Rectangle 89" width="168" height="136" rx="8" transform="translate(136 144)" fill="#519160"/>
    <rect id="Rectangle_90" data-name="Rectangle 90" width="48" height="24" transform="translate(336 376)" fill="#519160"/>
    <path id="Path_23" data-name="Path 23" d="M-1114.5,40.625H-1235a86.4,86.4,0,0,1,69.389-84.705,49.87,49.87,0,0,1,44.486-27.295h1.424a49.894,49.894,0,0,1,46.576-32H-1033a49.9,49.9,0,0,1,48.016,36.341A49.883,49.883,0,0,1-955.5-21.5q0,1.241-.06,2.468A64.146,64.146,0,0,1-915,40.625Z" transform="translate(1371 559.375)" fill="#519160"/>
  </g>
  <g id="Group_19" data-name="Group 19" transform="translate(752)">
    <rect id="Rectangle_91" data-name="Rectangle 91" width="96" height="384" transform="translate(248 216)" fill="#519160"/>
    <path id="Path_24" data-name="Path 24" d="M8,0h8a8,8,0,0,1,8,8V176a8,8,0,0,1-8,8H0V8A8,8,0,0,1,8,0Z" transform="translate(376 216)" fill="#519160"/>
    <path id="Path_25" data-name="Path 25" d="M0,0H256V352a8,8,0,0,1-8,8H8a8,8,0,0,1-8-8Z" transform="translate(168)" fill="#519160"/>
    <rect id="Rectangle_92" data-name="Rectangle 92" width="168" height="136" rx="8" transform="translate(288 208)" fill="#519160"/>
    <rect id="Rectangle_93" data-name="Rectangle 93" width="168" height="136" rx="8" transform="translate(136 144)" fill="#519160"/>
    <rect id="Rectangle_94" data-name="Rectangle 94" width="48" height="24" transform="translate(336 376)" fill="#519160"/>
    <path id="Path_26" data-name="Path 26" d="M-1114.5,40.625H-1235a86.4,86.4,0,0,1,69.389-84.705,49.87,49.87,0,0,1,44.486-27.295h1.424a49.894,49.894,0,0,1,46.576-32H-1033a49.9,49.9,0,0,1,48.016,36.341A49.883,49.883,0,0,1-955.5-21.5q0,1.241-.06,2.468A64.146,64.146,0,0,1-915,40.625Z" transform="translate(1371 559.375)" fill="#519160"/>
  </g>
  <g id="Group_20" data-name="Group 20" transform="translate(1196)">
    <rect id="Rectangle_95" data-name="Rectangle 95" width="96" height="384" transform="translate(248 216)" fill="#519160"/>
    <path id="Path_27" data-name="Path 27" d="M8,0h8a8,8,0,0,1,8,8V176a8,8,0,0,1-8,8H0V8A8,8,0,0,1,8,0Z" transform="translate(376 216)" fill="#519160"/>
    <path id="Path_28" data-name="Path 28" d="M0,0H256V352a8,8,0,0,1-8,8H8a8,8,0,0,1-8-8Z" transform="translate(168)" fill="#519160"/>
    <rect id="Rectangle_96" data-name="Rectangle 96" width="168" height="136" rx="8" transform="translate(288 208)" fill="#519160"/>
    <rect id="Rectangle_97" data-name="Rectangle 97" width="168" height="136" rx="8" transform="translate(136 144)" fill="#519160"/>
    <rect id="Rectangle_98" data-name="Rectangle 98" width="48" height="24" transform="translate(336 376)" fill="#519160"/>
    <path id="Path_29" data-name="Path 29" d="M-1114.5,40.625H-1235a86.4,86.4,0,0,1,69.389-84.705,49.87,49.87,0,0,1,44.486-27.295h1.424a49.894,49.894,0,0,1,46.576-32H-1033a49.9,49.9,0,0,1,48.016,36.341A49.883,49.883,0,0,1-955.5-21.5q0,1.241-.06,2.468A64.146,64.146,0,0,1-915,40.625Z" transform="translate(1371 559.375)" fill="#519160"/>
  </g>
  <g id="Group_21" data-name="Group 21" transform="translate(1640)">
    <rect id="Rectangle_99" data-name="Rectangle 99" width="96" height="384" transform="translate(248 216)" fill="#519160"/>
    <path id="Path_30" data-name="Path 30" d="M8,0h8a8,8,0,0,1,8,8V176a8,8,0,0,1-8,8H0V8A8,8,0,0,1,8,0Z" transform="translate(376 216)" fill="#519160"/>
    <path id="Path_31" data-name="Path 31" d="M0,0H256V352a8,8,0,0,1-8,8H8a8,8,0,0,1-8-8Z" transform="translate(168)" fill="#519160"/>
    <rect id="Rectangle_100" data-name="Rectangle 100" width="168" height="136" rx="8" transform="translate(288 208)" fill="#519160"/>
    <rect id="Rectangle_101" data-name="Rectangle 101" width="168" height="136" rx="8" transform="translate(136 144)" fill="#519160"/>
    <rect id="Rectangle_102" data-name="Rectangle 102" width="48" height="24" transform="translate(336 376)" fill="#519160"/>
    <path id="Path_32" data-name="Path 32" d="M-1114.5,40.625H-1235a86.4,86.4,0,0,1,69.389-84.705,49.87,49.87,0,0,1,44.486-27.295h1.424a49.894,49.894,0,0,1,46.576-32H-1033a49.9,49.9,0,0,1,48.016,36.341A49.883,49.883,0,0,1-955.5-21.5q0,1.241-.06,2.468A64.146,64.146,0,0,1-915,40.625Z" transform="translate(1371 559.375)" fill="#519160"/>
  </g>
  <g id="Group_22" data-name="Group 22" transform="translate(2084)">
    <rect id="Rectangle_103" data-name="Rectangle 103" width="96" height="384" transform="translate(248 216)" fill="#519160"/>
    <path id="Path_33" data-name="Path 33" d="M8,0h8a8,8,0,0,1,8,8V176a8,8,0,0,1-8,8H0V8A8,8,0,0,1,8,0Z" transform="translate(376 216)" fill="#519160"/>
    <path id="Path_34" data-name="Path 34" d="M0,0H256V352a8,8,0,0,1-8,8H8a8,8,0,0,1-8-8Z" transform="translate(168)" fill="#519160"/>
    <rect id="Rectangle_104" data-name="Rectangle 104" width="168" height="136" rx="8" transform="translate(288 208)" fill="#519160"/>
    <rect id="Rectangle_105" data-name="Rectangle 105" width="168" height="136" rx="8" transform="translate(136 144)" fill="#519160"/>
    <rect id="Rectangle_106" data-name="Rectangle 106" width="48" height="24" transform="translate(336 376)" fill="#519160"/>
    <path id="Path_35" data-name="Path 35" d="M-1114.5,40.625H-1235a86.4,86.4,0,0,1,69.389-84.705,49.87,49.87,0,0,1,44.486-27.295h1.424a49.894,49.894,0,0,1,46.576-32H-1033a49.9,49.9,0,0,1,48.016,36.341A49.883,49.883,0,0,1-955.5-21.5q0,1.241-.06,2.468A64.146,64.146,0,0,1-915,40.625Z" transform="translate(1371 559.375)" fill="#519160"/>
  </g>
</svg>
