<svg xmlns="http://www.w3.org/2000/svg" width="62.95" height="21" viewBox="0 0 62.95 21">
  <g id="btn-share" transform="translate(0.75)">
    <g id="Icon_feather-share-2" data-name="Icon feather-share-2" transform="translate(0 3)">
      <path id="Path_10" data-name="Path 10" d="M27.15,5.325A2.325,2.325,0,1,1,24.825,3,2.325,2.325,0,0,1,27.15,5.325Z" transform="translate(-13.2 -3)" fill="none" stroke="#7e6fb0" stroke-linecap="round" stroke-linejoin="round" stroke-width="1.5"/>
      <path id="Path_11" data-name="Path 11" d="M9.15,15.825A2.325,2.325,0,1,1,6.825,13.5,2.325,2.325,0,0,1,9.15,15.825Z" transform="translate(-4.5 -8.075)" fill="none" stroke="#7e6fb0" stroke-linecap="round" stroke-linejoin="round" stroke-width="1.5"/>
      <path id="Path_12" data-name="Path 12" d="M27.15,26.325A2.325,2.325,0,1,1,24.825,24,2.325,2.325,0,0,1,27.15,26.325Z" transform="translate(-13.2 -13.15)" fill="none" stroke="#7e6fb0" stroke-linecap="round" stroke-linejoin="round" stroke-width="1.5"/>
      <path id="Path_13" data-name="Path 13" d="M12.885,20.265l5.293,3.085" transform="translate(-8.553 -11.345)" fill="none" stroke="#7e6fb0" stroke-linecap="round" stroke-linejoin="round" stroke-width="1.5"/>
      <path id="Path_14" data-name="Path 14" d="M18.171,9.765,12.885,12.85" transform="translate(-8.553 -6.27)" fill="none" stroke="#7e6fb0" stroke-linecap="round" stroke-linejoin="round" stroke-width="1.5"/>
    </g>
    <text id="Share" transform="translate(22.2 17)" fill="#7e6fb0" font-size="16" font-family="SegoeUI, Segoe UI"><tspan x="0" y="0">Share</tspan></text>
  </g>
</svg>
