<svg xmlns="http://www.w3.org/2000/svg" width="70.738" height="21" viewBox="0 0 70.738 21">
  <g id="btn-delete" transform="translate(0.75)">
    <g id="Icon_feather-trash-2" data-name="Icon feather-trash-2" transform="translate(0 2)">
      <path id="Path_15" data-name="Path 15" d="M4.5,9h16" transform="translate(-4.5 -5.68)" fill="none" stroke="#7e6fb0" stroke-linecap="round" stroke-linejoin="round" stroke-width="1.5"/>
      <path id="Path_16" data-name="Path 16" d="M17.5,6.556V19a1.632,1.632,0,0,1-1.429,1.778H8.929A1.632,1.632,0,0,1,7.5,19V6.556m2.143-.629V4.778A1.632,1.632,0,0,1,11.071,3h2.857a1.632,1.632,0,0,1,1.429,1.778V5.927" transform="translate(-4.5 -3)" fill="none" stroke="#7e6fb0" stroke-linecap="round" stroke-linejoin="round" stroke-width="1.5"/>
      <path id="Path_17" data-name="Path 17" d="M15,16.5v9" transform="translate(-8.778 -11.655)" fill="none" stroke="#7e6fb0" stroke-linecap="round" stroke-linejoin="round" stroke-width="1.5"/>
      <path id="Path_18" data-name="Path 18" d="M21,16.5v9" transform="translate(-11.222 -11.655)" fill="none" stroke="#7e6fb0" stroke-linecap="round" stroke-linejoin="round" stroke-width="1.5"/>
    </g>
    <text id="Delete" transform="translate(23.988 17)" fill="#7e6fb0" font-size="16" font-family="SegoeUI, Segoe UI"><tspan x="0" y="0">Delete</tspan></text>
  </g>
</svg>
