<svg id="_004-docs" data-name="004-docs" xmlns="http://www.w3.org/2000/svg" width="15.934" height="22" viewBox="0 0 15.934 22">
  <path id="Path_24" data-name="Path 24" d="M86.523,6.026V20.583A1.417,1.417,0,0,1,85.106,22h-13.1a1.417,1.417,0,0,1-1.417-1.417V1.417A1.417,1.417,0,0,1,72.006,0H80.5Z" transform="translate(-70.589)" fill="#518ef8"/>
  <g id="Group_2" data-name="Group 2" transform="translate(3.734 10.846)">
    <rect id="Rectangle_12" data-name="Rectangle 12" width="8.465" height="0.941" fill="#fff"/>
    <rect id="Rectangle_13" data-name="Rectangle 13" width="8.465" height="0.941" transform="translate(0 2.101)" fill="#fff"/>
    <rect id="Rectangle_14" data-name="Rectangle 14" width="8.465" height="0.941" transform="translate(0 4.201)" fill="#fff"/>
    <rect id="Rectangle_15" data-name="Rectangle 15" width="6.02" height="0.941" transform="translate(0 6.302)" fill="#fff"/>
  </g>
  <path id="Path_25" data-name="Path 25" d="M320.31,120.731l5.406,2.227v-2.091l-3.065-.9Z" transform="translate(-309.782 -114.838)" fill="#3a5bbc"/>
  <path id="Path_26" data-name="Path 26" d="M307.437,6.26h-4.788a1.472,1.472,0,0,1-1.472-1.472V0Z" transform="translate(-291.503)" fill="#acd1fc"/>
</svg>
