<svg xmlns="http://www.w3.org/2000/svg" xmlns:xlink="http://www.w3.org/1999/xlink" width="1090" height="472" viewBox="0 0 1090 472">
  <defs>
    <filter id="File-bg" x="0" y="0" width="1090" height="472" filterUnits="userSpaceOnUse">
      <feOffset input="SourceAlpha"/>
      <feGaussianBlur stdDeviation="5" result="blur"/>
      <feFlood flood-opacity="0.161"/>
      <feComposite operator="in" in2="blur"/>
      <feComposite in="SourceGraphic"/>
    </filter>
  </defs>
  <g id="DragToUpload" transform="translate(-315 -262)">
    <g transform="matrix(1, 0, 0, 1, 315, 262)" filter="url(#File-bg)">
      <g id="File-bg-2" data-name="File-bg" transform="translate(15 15)" fill="#f3f0fd" opacity="0.84">
        <path d="M 1052 441 L 8 441 C 4.140133380889893 441 1 437.85986328125 1 434 L 1 8 C 1 4.140133380889893 4.140133380889893 1 8 1 L 1052 1 C 1055.85986328125 1 1059 4.140133380889893 1059 8 L 1059 434 C 1059 437.85986328125 1055.85986328125 441 1052 441 Z" stroke="none"/>
        <path d="M 8 2 C 4.691650390625 2 2 4.69158935546875 2 8 L 2 434 C 2 437.3084106445313 4.691650390625 440 8 440 L 1052 440 C 1055.308349609375 440 1058 437.3084106445313 1058 434 L 1058 8 C 1058 4.69158935546875 1055.308349609375 2 1052 2 L 8 2 M 8 0 L 1052 0 C 1056.418212890625 0 1060 3.58172607421875 1060 8 L 1060 434 C 1060 438.4182739257813 1056.418212890625 442 1052 442 L 8 442 C 3.58154296875 442 0 438.4182739257813 0 434 L 0 8 C 0 3.58172607421875 3.58154296875 0 8 0 Z" stroke="none" fill="#7e6fb0"/>
      </g>
    </g>
    <path id="Icon_awesome-file-upload" data-name="Icon awesome-file-upload" d="M45.917,27.878V0h-41A4.908,4.908,0,0,0,0,4.92v95.113a4.908,4.908,0,0,0,4.92,4.92H73.795a4.908,4.908,0,0,0,4.92-4.92V32.8H50.836A4.934,4.934,0,0,1,45.917,27.878ZM59.278,72.157H45.917v16.4a3.279,3.279,0,0,1-3.28,3.28h-6.56a3.279,3.279,0,0,1-3.28-3.28v-16.4H19.437a3.28,3.28,0,0,1-2.31-5.608L36.891,46.931a3.5,3.5,0,0,1,4.928,0L61.584,66.548A3.279,3.279,0,0,1,59.278,72.157Zm18-50.633L57.211,1.435A4.916,4.916,0,0,0,53.727,0h-1.25V26.238H78.714v-1.25A4.9,4.9,0,0,0,77.279,21.523Z" transform="translate(821 434)" fill="#7e6fb0"/>
    <text id="Drag_Drop_your_upload_files_here." data-name="Drag &amp; Drop your upload files here." transform="translate(702 587)" fill="#7e6fb0" font-size="20" font-family="SegoeUI, Segoe UI"><tspan x="0" y="0">Drag &amp; Drop your upload files here.</tspan></text>
  </g>
</svg>
