<svg xmlns="http://www.w3.org/2000/svg" width="26" height="21.069" viewBox="0 0 26 21.069">
  <g id="_007-folder" data-name="007-folder" transform="translate(0)">
    <path id="Path_35" data-name="Path 35" d="M20.766,37.914H.7a.809.809,0,0,1-.677-1.045L4.582,22.112a.731.731,0,0,1,.677-.612H25.323c.462,0,.677.521.677,1.045L21.443,37.3A.731.731,0,0,1,20.766,37.914Z" transform="translate(0 -16.845)" fill="#efce4a"/>
    <g id="Group_11" data-name="Group 11" transform="translate(0)">
      <path id="Path_36" data-name="Path 36" d="M23.2,8.546H11.538L9.231,5.5H.8a.778.778,0,0,0-.8.754V24.845l.095,0L4.717,12.965a.716.716,0,0,1,.7-.5H24V9.3A.778.778,0,0,0,23.2,8.546Z" transform="translate(0 -5.5)" fill="#ebba16"/>
    </g>
  </g>
</svg>
