<svg xmlns="http://www.w3.org/2000/svg" width="20" height="22.857" viewBox="0 0 20 22.857">
  <g id="_003-pdf" data-name="003-pdf" transform="translate(0)">
    <path id="Path_21" data-name="Path 21" d="M20.758,0H32.9l6.434,6.409v15.02A1.429,1.429,0,0,1,37.9,22.857H20.758a1.429,1.429,0,0,1-1.429-1.429v-20A1.429,1.429,0,0,1,20.758,0Z" transform="translate(-19.329 0)" fill="#e2574c"/>
    <path id="Path_22" data-name="Path 22" d="M210.886,8.13h-6.161a1.768,1.768,0,0,1-1.768-1.768V.193Z" transform="translate(-190.912 -0.175)" fill="#b53629"/>
    <path id="Path_23" data-name="Path 23" d="M97.071,136.437c.248,0,.37-.258.37-.508s-.127-.509-.37-.509H95.657c-.276,0-.43.273-.43.575v4.144c0,.369.176.575.415.575s.414-.205.414-.575V139h.855c.265,0,.4-.259.4-.516s-.133-.5-.4-.5h-.855v-1.546Zm-4.778-1.017H91.259a.507.507,0,0,0-.48.571v4.152a.5.5,0,0,0,.492.556h1.085c1.285,0,2.133-1.008,2.133-2.565C94.488,136.488,93.69,135.42,92.293,135.42Zm.05,4.255h-.631v-3.231h.568c.86,0,1.234.689,1.234,1.639C93.515,138.971,93.147,139.675,92.343,139.675Zm-3.789-4.255H87.529c-.29,0-.451.228-.451.575v4.144c0,.369.185.575.434.575s.434-.205.434-.575v-1.21h.642a1.555,1.555,0,0,0,1.447-1.747A1.571,1.571,0,0,0,88.554,135.42Zm-.017,2.537h-.591v-1.564h.591c.365,0,.6.339.6.782S88.9,137.957,88.537,137.957Z" transform="translate(-82.257 -125.959)" fill="#fff"/>
  </g>
</svg>
