<svg id="_005-sheets" data-name="005-sheets" xmlns="http://www.w3.org/2000/svg" width="15.934" height="22" viewBox="0 0 15.934 22">
  <path id="Path_27" data-name="Path 27" d="M86.523,6.026V20.583A1.417,1.417,0,0,1,85.106,22h-13.1a1.417,1.417,0,0,1-1.417-1.417V1.417A1.417,1.417,0,0,1,72.006,0H80.5Z" transform="translate(-70.589)" fill="#28b446"/>
  <path id="Path_28" data-name="Path 28" d="M320.31,120.731l5.406,2.227v-2.091l-3.065-.9Z" transform="translate(-309.782 -114.838)" fill="#219b38"/>
  <path id="Path_29" data-name="Path 29" d="M307.437,6.26h-4.788a1.472,1.472,0,0,1-1.472-1.472V0Z" transform="translate(-291.503)" fill="#6ace7c"/>
  <path id="Path_30" data-name="Path 30" d="M172.053,254.946H164.81a.47.47,0,0,0-.47.47v6.3a.47.47,0,0,0,.47.47h7.242a.47.47,0,0,0,.47-.47v-6.3A.47.47,0,0,0,172.053,254.946Zm-6.772,3.024h2.681v1.2h-2.681Zm3.621,0h2.681v1.2H168.9Zm2.681-.941H168.9v-1.142h2.681v1.142Zm-3.621-1.142v1.142h-2.681v-1.142Zm-2.681,4.219h2.681v1.142h-2.681Zm3.621,1.142v-1.142h2.681v1.142Z" transform="translate(-160.465 -244.189)" fill="#fff"/>
</svg>
