<svg xmlns="http://www.w3.org/2000/svg" width="18" height="18" viewBox="0 0 18 18">
  <path id="time" d="M4.488,12.844A8.825,8.825,0,0,1,5.7,8.32,8.993,8.993,0,0,1,8.988,5.035a8.983,8.983,0,0,1,8-.5,9.081,9.081,0,0,1,2.869,1.918,8.813,8.813,0,0,1,1.918,2.877,8.938,8.938,0,0,1-4.788,11.782,8.97,8.97,0,0,1-7,0,8.857,8.857,0,0,1-4.8-4.78A8.662,8.662,0,0,1,4.488,12.844Zm1.982,0a6.793,6.793,0,0,0,2.07,4.94,6.751,6.751,0,0,0,4.956,2.07A6.8,6.8,0,0,0,17,18.911a7.091,7.091,0,0,0,2.566-2.558,6.963,6.963,0,0,0,0-7.026A7.052,7.052,0,0,0,17,6.761a7,7,0,0,0-7.018,0A7.2,7.2,0,0,0,7.413,9.327,6.768,6.768,0,0,0,6.47,12.844ZM9.6,11.2a.618.618,0,0,1,.056-.5.661.661,0,0,1,.408-.32.633.633,0,0,1,.512.056L12.8,11.685V7.521a.663.663,0,1,1,1.327,0v5.331a.662.662,0,0,1-1.111.488l-3.1-1.734A.727.727,0,0,1,9.6,11.2Z" transform="translate(-4.488 -3.828)" fill="#565656"/>
</svg>
